<svg width="1227" height="431" viewBox="0 0 1227 431" fill="none" xmlns="http://www.w3.org/2000/svg">
<path d="M5.6 22H26.18V120H5.6V22ZM61.04 22H84.84L44.24 67.92L86.94 120H62.58L20.3 68.48L61.04 22Z" fill="black"/>
<path d="M89.5902 87.8C89.5902 81.08 91.1302 75.2 94.2102 70.16C97.3835 65.12 101.63 61.2 106.95 58.4C112.363 55.6 118.477 54.2 125.29 54.2C132.103 54.2 138.17 55.6 143.49 58.4C148.903 61.2 153.15 65.12 156.23 70.16C159.403 75.2 160.99 81.08 160.99 87.8C160.99 94.4267 159.403 100.307 156.23 105.44C153.15 110.48 148.903 114.4 143.49 117.2C138.17 120 132.103 121.4 125.29 121.4C118.477 121.4 112.363 120 106.95 117.2C101.63 114.4 97.3835 110.48 94.2102 105.44C91.1302 100.307 89.5902 94.4267 89.5902 87.8ZM108.07 87.8C108.07 91.44 108.817 94.66 110.31 97.46C111.897 100.167 113.997 102.313 116.61 103.9C119.223 105.393 122.117 106.14 125.29 106.14C128.463 106.14 131.357 105.393 133.97 103.9C136.583 102.313 138.637 100.167 140.13 97.46C141.717 94.66 142.51 91.44 142.51 87.8C142.51 84.16 141.717 80.94 140.13 78.14C138.637 75.34 136.583 73.1933 133.97 71.7C131.357 70.2067 128.463 69.46 125.29 69.46C122.117 69.46 119.223 70.2067 116.61 71.7C113.997 73.1933 111.897 75.34 110.31 78.14C108.817 80.94 108.07 84.16 108.07 87.8Z" fill="black"/>
<path d="M238.154 120L228.914 73.66L238.154 50.7L256.774 120H238.154ZM208.194 104.32L238.154 50.7L239.554 77.3L212.394 124.34L208.194 104.32ZM212.394 124.34L185.654 77.3L187.054 50.7L216.594 104.32L212.394 124.34ZM168.434 120L187.054 50.7L196.294 73.66L187.054 120H168.434Z" fill="black"/>
<path d="M281.362 100.82C281.362 102.593 281.828 104.087 282.762 105.3C283.695 106.42 284.955 107.307 286.542 107.96C288.222 108.52 290.042 108.8 292.002 108.8C294.895 108.8 297.555 108.333 299.982 107.4C302.408 106.467 304.322 104.927 305.722 102.78C307.122 100.633 307.822 97.7867 307.822 94.24L310.062 101.8C310.062 105.907 308.988 109.453 306.842 112.44C304.695 115.333 301.802 117.573 298.162 119.16C294.615 120.653 290.602 121.4 286.122 121.4C281.735 121.4 277.815 120.653 274.362 119.16C270.908 117.667 268.155 115.473 266.102 112.58C264.142 109.593 263.162 105.953 263.162 101.66C263.162 97.2733 264.282 93.54 266.522 90.46C268.855 87.2867 272.075 84.86 276.182 83.18C280.382 81.5 285.282 80.66 290.882 80.66C294.335 80.66 297.555 81.08 300.542 81.92C303.528 82.76 306.048 83.74 308.102 84.86C310.155 85.98 311.602 87.0533 312.442 88.08V96.9C309.828 94.94 307.122 93.4933 304.322 92.56C301.522 91.6267 298.208 91.16 294.382 91.16C291.582 91.16 289.202 91.58 287.242 92.42C285.282 93.26 283.788 94.38 282.762 95.78C281.828 97.18 281.362 98.86 281.362 100.82ZM275.622 73.94L269.042 61.48C272.308 59.7067 276.322 58.0267 281.082 56.44C285.842 54.76 291.115 53.92 296.902 53.92C302.502 53.92 307.402 54.7133 311.602 56.3C315.895 57.8867 319.255 60.22 321.682 63.3C324.108 66.2867 325.322 69.9733 325.322 74.36V120H307.822V77.3C307.822 74.4067 306.702 72.1667 304.462 70.58C302.222 68.9 299.328 68.06 295.782 68.06C292.702 68.06 289.808 68.4333 287.102 69.18C284.488 69.8333 282.155 70.6267 280.102 71.56C278.142 72.4933 276.648 73.2867 275.622 73.94Z" fill="black"/>
<path d="M350.853 93.12V78.98H401.533V93.12H350.853ZM392.713 55.6H410.213V120H392.713V55.6ZM344.273 55.6H361.773V120H344.273V55.6Z" fill="black"/>
<path d="M469.102 79.12L452.582 115.8L434.662 112.86L469.102 50.7L503.682 112.86L485.622 115.8L469.102 79.12ZM494.162 120H444.742V132.6H426.822V105.3H511.382V132.6H494.162V120Z" fill="black"/>
<path d="M541.685 100.82C541.685 102.593 542.152 104.087 543.085 105.3C544.018 106.42 545.278 107.307 546.865 107.96C548.545 108.52 550.365 108.8 552.325 108.8C555.218 108.8 557.878 108.333 560.305 107.4C562.732 106.467 564.645 104.927 566.045 102.78C567.445 100.633 568.145 97.7867 568.145 94.24L570.385 101.8C570.385 105.907 569.312 109.453 567.165 112.44C565.018 115.333 562.125 117.573 558.485 119.16C554.938 120.653 550.925 121.4 546.445 121.4C542.058 121.4 538.138 120.653 534.685 119.16C531.232 117.667 528.478 115.473 526.425 112.58C524.465 109.593 523.485 105.953 523.485 101.66C523.485 97.2733 524.605 93.54 526.845 90.46C529.178 87.2867 532.398 84.86 536.505 83.18C540.705 81.5 545.605 80.66 551.205 80.66C554.658 80.66 557.878 81.08 560.865 81.92C563.852 82.76 566.372 83.74 568.425 84.86C570.478 85.98 571.925 87.0533 572.765 88.08V96.9C570.152 94.94 567.445 93.4933 564.645 92.56C561.845 91.6267 558.532 91.16 554.705 91.16C551.905 91.16 549.525 91.58 547.565 92.42C545.605 93.26 544.112 94.38 543.085 95.78C542.152 97.18 541.685 98.86 541.685 100.82ZM535.945 73.94L529.365 61.48C532.632 59.7067 536.645 58.0267 541.405 56.44C546.165 54.76 551.438 53.92 557.225 53.92C562.825 53.92 567.725 54.7133 571.925 56.3C576.218 57.8867 579.578 60.22 582.005 63.3C584.432 66.2867 585.645 69.9733 585.645 74.36V120H568.145V77.3C568.145 74.4067 567.025 72.1667 564.785 70.58C562.545 68.9 559.652 68.06 556.105 68.06C553.025 68.06 550.132 68.4333 547.425 69.18C544.812 69.8333 542.478 70.6267 540.425 71.56C538.465 72.4933 536.972 73.2867 535.945 73.94Z" fill="black"/>
<path d="M15.96 226.4H37.52C42 226.4 46.0133 226.867 49.56 227.8C53.1067 228.733 55.9067 230.367 57.96 232.7C60.0133 235.033 61.04 238.3 61.04 242.5C61.04 247.353 59.4067 251.507 56.14 254.96C52.9667 258.32 47.6933 260 40.32 260H15.96V247.82H34.58C37.8467 247.82 40.18 247.073 41.58 245.58C43.0733 244.087 43.82 242.407 43.82 240.54C43.82 239.513 43.6333 238.627 43.26 237.88C42.8867 237.04 42.3267 236.293 41.58 235.64C40.9267 234.893 39.9933 234.38 38.78 234.1C37.66 233.727 36.26 233.54 34.58 233.54H15.96V226.4ZM15.96 229.2V221.36H33.18C34.3933 221.36 35.4667 221.22 36.4 220.94C37.4267 220.567 38.2667 220.053 38.92 219.4C39.5733 218.747 40.0867 218 40.46 217.16C40.8333 216.32 41.02 215.433 41.02 214.5C41.02 212.633 40.32 211.047 38.92 209.74C37.52 208.433 35.6067 207.78 33.18 207.78H15.96V195.6H36.12C40.1333 195.6 43.7733 196.207 47.04 197.42C50.4 198.54 53.1067 200.407 55.16 203.02C57.2133 205.54 58.24 208.9 58.24 213.1C58.24 216.74 57.2133 219.773 55.16 222.2C53.1067 224.533 50.4 226.307 47.04 227.52C43.7733 228.64 40.1333 229.2 36.12 229.2H15.96ZM5.46 195.6H22.96V260H5.46V195.6Z" fill="black"/>
<path d="M71.9534 227.8C71.9534 221.08 73.4934 215.2 76.5734 210.16C79.7468 205.12 83.9934 201.2 89.3134 198.4C94.7268 195.6 100.84 194.2 107.653 194.2C114.467 194.2 120.533 195.6 125.853 198.4C131.267 201.2 135.513 205.12 138.593 210.16C141.767 215.2 143.353 221.08 143.353 227.8C143.353 234.427 141.767 240.307 138.593 245.44C135.513 250.48 131.267 254.4 125.853 257.2C120.533 260 114.467 261.4 107.653 261.4C100.84 261.4 94.7268 260 89.3134 257.2C83.9934 254.4 79.7468 250.48 76.5734 245.44C73.4934 240.307 71.9534 234.427 71.9534 227.8ZM90.4334 227.8C90.4334 231.44 91.1801 234.66 92.6734 237.46C94.2601 240.167 96.3601 242.313 98.9734 243.9C101.587 245.393 104.48 246.14 107.653 246.14C110.827 246.14 113.72 245.393 116.333 243.9C118.947 242.313 121 240.167 122.493 237.46C124.08 234.66 124.873 231.44 124.873 227.8C124.873 224.16 124.08 220.94 122.493 218.14C121 215.34 118.947 213.193 116.333 211.7C113.72 210.207 110.827 209.46 107.653 209.46C104.48 209.46 101.587 210.207 98.9734 211.7C96.3601 213.193 94.2601 215.34 92.6734 218.14C91.1801 220.94 90.4334 224.16 90.4334 227.8Z" fill="black"/>
<path d="M223.317 195.6V260H205.818V212.12H179.217V237.6C179.217 242.64 178.331 246.84 176.557 250.2C174.784 253.467 171.844 255.94 167.738 257.62C163.724 259.207 158.311 260 151.497 260V243.76C154.297 243.76 156.677 243.153 158.637 241.94C160.691 240.633 161.717 237.973 161.717 233.96V195.6H223.317Z" fill="black"/>
<path d="M241.173 227.8C241.173 221.08 242.713 215.2 245.793 210.16C248.966 205.12 253.213 201.2 258.533 198.4C263.946 195.6 270.06 194.2 276.873 194.2C283.686 194.2 289.753 195.6 295.073 198.4C300.486 201.2 304.733 205.12 307.813 210.16C310.986 215.2 312.573 221.08 312.573 227.8C312.573 234.427 310.986 240.307 307.813 245.44C304.733 250.48 300.486 254.4 295.073 257.2C289.753 260 283.686 261.4 276.873 261.4C270.06 261.4 263.946 260 258.533 257.2C253.213 254.4 248.966 250.48 245.793 245.44C242.713 240.307 241.173 234.427 241.173 227.8ZM259.653 227.8C259.653 231.44 260.4 234.66 261.893 237.46C263.48 240.167 265.58 242.313 268.193 243.9C270.806 245.393 273.7 246.14 276.873 246.14C280.046 246.14 282.94 245.393 285.553 243.9C288.166 242.313 290.22 240.167 291.713 237.46C293.3 234.66 294.093 231.44 294.093 227.8C294.093 224.16 293.3 220.94 291.713 218.14C290.22 215.34 288.166 213.193 285.553 211.7C282.94 210.207 280.046 209.46 276.873 209.46C273.7 209.46 270.806 210.207 268.193 211.7C265.58 213.193 263.48 215.34 261.893 218.14C260.4 220.94 259.653 224.16 259.653 227.8Z" fill="black"/>
<path d="M334.857 233.12V218.98H385.537V233.12H334.857ZM376.717 195.6H394.217V260H376.717V195.6ZM328.277 195.6H345.777V260H328.277V195.6Z" fill="black"/>
<path d="M405.926 195.6H448.766V210.86H405.926V195.6ZM418.666 198.4H436.166V260H418.666V198.4Z" fill="black"/>
<path d="M464.552 231.86V220.66H503.052C502.678 217.86 501.932 215.433 500.812 213.38C499.692 211.327 498.152 209.74 496.192 208.62C494.232 207.5 491.758 206.94 488.772 206.94C485.692 206.94 482.938 207.64 480.512 209.04C478.085 210.347 476.172 212.307 474.772 214.92C473.372 217.533 472.672 220.613 472.672 224.16L472.392 227.8C472.392 232.373 473.092 236.153 474.492 239.14C475.985 242.033 477.992 244.18 480.512 245.58C483.032 246.887 485.878 247.54 489.052 247.54C491.852 247.54 494.325 247.167 496.472 246.42C498.618 245.673 500.532 244.6 502.212 243.2C503.892 241.8 505.292 240.167 506.412 238.3L522.232 243.2C520.085 246.84 517.565 250.06 514.672 252.86C511.778 255.567 508.232 257.667 504.032 259.16C499.925 260.653 494.885 261.4 488.912 261.4C481.725 261.4 475.518 259.953 470.292 257.06C465.065 254.167 461.052 250.2 458.252 245.16C455.545 240.027 454.192 234.24 454.192 227.8C454.192 226.587 454.238 225.42 454.332 224.3C454.425 223.18 454.565 222.06 454.752 220.94C455.685 215.62 457.598 210.953 460.492 206.94C463.385 202.927 467.258 199.8 472.112 197.56C476.965 195.32 482.612 194.2 489.052 194.2C496.145 194.2 502.165 195.553 507.112 198.26C512.152 200.873 515.978 204.607 518.592 209.46C521.205 214.313 522.512 220.147 522.512 226.96C522.512 227.52 522.512 228.22 522.512 229.06C522.512 229.9 522.418 230.833 522.232 231.86H464.552Z" fill="black"/>
<path d="M556.341 290.8H538.141V195.6H556.341V290.8ZM609.261 227.8C609.261 235.08 607.815 241.287 604.921 246.42C602.028 251.553 598.201 255.427 593.441 258.04C588.775 260.653 583.735 261.96 578.321 261.96C572.815 261.96 568.008 260.56 563.901 257.76C559.888 254.96 556.761 250.993 554.521 245.86C552.375 240.727 551.301 234.707 551.301 227.8C551.301 220.8 552.375 214.78 554.521 209.74C556.761 204.607 559.888 200.64 563.901 197.84C568.008 195.04 572.815 193.64 578.321 193.64C583.735 193.64 588.775 194.947 593.441 197.56C598.201 200.173 602.028 204.047 604.921 209.18C607.815 214.22 609.261 220.427 609.261 227.8ZM590.501 227.8C590.501 223.973 589.708 220.707 588.121 218C586.535 215.293 584.388 213.24 581.681 211.84C579.068 210.44 576.175 209.74 573.001 209.74C570.295 209.74 567.635 210.44 565.021 211.84C562.501 213.147 560.401 215.153 558.721 217.86C557.135 220.567 556.341 223.88 556.341 227.8C556.341 231.72 557.135 235.033 558.721 237.74C560.401 240.447 562.501 242.5 565.021 243.9C567.635 245.207 570.295 245.86 573.001 245.86C576.175 245.86 579.068 245.16 581.681 243.76C584.388 242.36 586.535 240.307 588.121 237.6C589.708 234.893 590.501 231.627 590.501 227.8Z" fill="black"/>
<path d="M620.54 227.8C620.54 221.08 622.08 215.2 625.16 210.16C628.333 205.12 632.58 201.2 637.9 198.4C643.313 195.6 649.427 194.2 656.24 194.2C663.054 194.2 669.12 195.6 674.44 198.4C679.853 201.2 684.1 205.12 687.18 210.16C690.353 215.2 691.94 221.08 691.94 227.8C691.94 234.427 690.353 240.307 687.18 245.44C684.1 250.48 679.853 254.4 674.44 257.2C669.12 260 663.054 261.4 656.24 261.4C649.427 261.4 643.313 260 637.9 257.2C632.58 254.4 628.333 250.48 625.16 245.44C622.08 240.307 620.54 234.427 620.54 227.8ZM639.02 227.8C639.02 231.44 639.767 234.66 641.26 237.46C642.847 240.167 644.947 242.313 647.56 243.9C650.173 245.393 653.067 246.14 656.24 246.14C659.414 246.14 662.307 245.393 664.92 243.9C667.533 242.313 669.587 240.167 671.08 237.46C672.667 234.66 673.46 231.44 673.46 227.8C673.46 224.16 672.667 220.94 671.08 218.14C669.587 215.34 667.533 213.193 664.92 211.7C662.307 210.207 659.414 209.46 656.24 209.46C653.067 209.46 650.173 210.207 647.56 211.7C644.947 213.193 642.847 215.34 641.26 218.14C639.767 220.94 639.02 224.16 639.02 227.8Z" fill="black"/>
<path d="M719.684 226.4H741.244C745.724 226.4 749.738 226.867 753.284 227.8C756.831 228.733 759.631 230.367 761.684 232.7C763.738 235.033 764.764 238.3 764.764 242.5C764.764 247.353 763.131 251.507 759.864 254.96C756.691 258.32 751.418 260 744.044 260H719.684V247.82H738.304C741.571 247.82 743.904 247.073 745.304 245.58C746.798 244.087 747.544 242.407 747.544 240.54C747.544 239.513 747.358 238.627 746.984 237.88C746.611 237.04 746.051 236.293 745.304 235.64C744.651 234.893 743.718 234.38 742.504 234.1C741.384 233.727 739.984 233.54 738.304 233.54H719.684V226.4ZM719.684 229.2V221.36H736.904C738.118 221.36 739.191 221.22 740.124 220.94C741.151 220.567 741.991 220.053 742.644 219.4C743.298 218.747 743.811 218 744.184 217.16C744.558 216.32 744.744 215.433 744.744 214.5C744.744 212.633 744.044 211.047 742.644 209.74C741.244 208.433 739.331 207.78 736.904 207.78H719.684V195.6H739.844C743.858 195.6 747.498 196.207 750.764 197.42C754.124 198.54 756.831 200.407 758.884 203.02C760.938 205.54 761.964 208.9 761.964 213.1C761.964 216.74 760.938 219.773 758.884 222.2C756.831 224.533 754.124 226.307 750.764 227.52C747.498 228.64 743.858 229.2 739.844 229.2H719.684ZM709.184 195.6H726.684V260H709.184V195.6Z" fill="black"/>
<path d="M21.7 351C21.7 357.44 23.1467 363.087 26.04 367.94C29.0267 372.7 32.9 376.387 37.66 379C42.42 381.52 47.6 382.78 53.2 382.78C57.8667 382.78 62.02 382.173 65.66 380.96C69.3 379.747 72.5667 378.113 75.46 376.06C78.4467 374.007 81.0133 371.767 83.16 369.34V391.88C79.1467 395.053 74.76 397.527 70 399.3C65.3333 401.073 59.4067 401.96 52.22 401.96C44.7533 401.96 37.8 400.747 31.36 398.32C25.0133 395.893 19.46 392.393 14.7 387.82C10.0333 383.247 6.39333 377.88 3.78 371.72C1.26 365.467 0 358.56 0 351C0 343.44 1.26 336.58 3.78 330.42C6.39333 324.167 10.0333 318.753 14.7 314.18C19.46 309.607 25.0133 306.107 31.36 303.68C37.8 301.253 44.7533 300.04 52.22 300.04C59.4067 300.04 65.3333 300.927 70 302.7C74.76 304.473 79.1467 306.947 83.16 310.12V332.66C81.0133 330.233 78.4467 327.993 75.46 325.94C72.5667 323.887 69.3 322.253 65.66 321.04C62.02 319.827 57.8667 319.22 53.2 319.22C47.6 319.22 42.42 320.527 37.66 323.14C32.9 325.66 29.0267 329.3 26.04 334.06C23.1467 338.82 21.7 344.467 21.7 351Z" fill="black"/>
<path d="M116.38 380.82C116.38 382.593 116.847 384.087 117.78 385.3C118.714 386.42 119.974 387.307 121.56 387.96C123.24 388.52 125.06 388.8 127.02 388.8C129.914 388.8 132.574 388.333 135 387.4C137.427 386.467 139.34 384.927 140.74 382.78C142.14 380.633 142.84 377.787 142.84 374.24L145.08 381.8C145.08 385.907 144.007 389.453 141.86 392.44C139.714 395.333 136.82 397.573 133.18 399.16C129.634 400.653 125.62 401.4 121.14 401.4C116.754 401.4 112.834 400.653 109.38 399.16C105.927 397.667 103.174 395.473 101.12 392.58C99.1605 389.593 98.1805 385.953 98.1805 381.66C98.1805 377.273 99.3005 373.54 101.54 370.46C103.874 367.287 107.094 364.86 111.2 363.18C115.4 361.5 120.3 360.66 125.9 360.66C129.354 360.66 132.574 361.08 135.56 361.92C138.547 362.76 141.067 363.74 143.12 364.86C145.174 365.98 146.62 367.053 147.46 368.08V376.9C144.847 374.94 142.14 373.493 139.34 372.56C136.54 371.627 133.227 371.16 129.4 371.16C126.6 371.16 124.22 371.58 122.26 372.42C120.3 373.26 118.807 374.38 117.78 375.78C116.847 377.18 116.38 378.86 116.38 380.82ZM110.64 353.94L104.06 341.48C107.327 339.707 111.34 338.027 116.1 336.44C120.86 334.76 126.134 333.92 131.92 333.92C137.52 333.92 142.42 334.713 146.62 336.3C150.914 337.887 154.274 340.22 156.7 343.3C159.127 346.287 160.34 349.973 160.34 354.36V400H142.84V357.3C142.84 354.407 141.72 352.167 139.48 350.58C137.24 348.9 134.347 348.06 130.8 348.06C127.72 348.06 124.827 348.433 122.12 349.18C119.507 349.833 117.174 350.627 115.12 351.56C113.16 352.493 111.667 353.287 110.64 353.94Z" fill="black"/>
<path d="M218.492 335.6H238.512L214.712 366.82L239.912 400H219.892L205.332 379.56L191.052 400H170.332L195.812 366.82L171.732 335.6H192.452L205.332 354.22L218.492 335.6Z" fill="black"/>
<path d="M263.862 380.82C263.862 382.593 264.328 384.087 265.262 385.3C266.195 386.42 267.455 387.307 269.042 387.96C270.722 388.52 272.542 388.8 274.502 388.8C277.395 388.8 280.055 388.333 282.482 387.4C284.908 386.467 286.822 384.927 288.222 382.78C289.622 380.633 290.322 377.787 290.322 374.24L292.562 381.8C292.562 385.907 291.488 389.453 289.342 392.44C287.195 395.333 284.302 397.573 280.662 399.16C277.115 400.653 273.102 401.4 268.622 401.4C264.235 401.4 260.315 400.653 256.862 399.16C253.408 397.667 250.655 395.473 248.602 392.58C246.642 389.593 245.662 385.953 245.662 381.66C245.662 377.273 246.782 373.54 249.022 370.46C251.355 367.287 254.575 364.86 258.682 363.18C262.882 361.5 267.782 360.66 273.382 360.66C276.835 360.66 280.055 361.08 283.042 361.92C286.028 362.76 288.548 363.74 290.602 364.86C292.655 365.98 294.102 367.053 294.942 368.08V376.9C292.328 374.94 289.622 373.493 286.822 372.56C284.022 371.627 280.708 371.16 276.882 371.16C274.082 371.16 271.702 371.58 269.742 372.42C267.782 373.26 266.288 374.38 265.262 375.78C264.328 377.18 263.862 378.86 263.862 380.82ZM258.122 353.94L251.542 341.48C254.808 339.707 258.822 338.027 263.582 336.44C268.342 334.76 273.615 333.92 279.402 333.92C285.002 333.92 289.902 334.713 294.102 336.3C298.395 337.887 301.755 340.22 304.182 343.3C306.608 346.287 307.822 349.973 307.822 354.36V400H290.322V357.3C290.322 354.407 289.202 352.167 286.962 350.58C284.722 348.9 281.828 348.06 278.282 348.06C275.202 348.06 272.308 348.433 269.602 349.18C266.988 349.833 264.655 350.627 262.602 351.56C260.642 352.493 259.148 353.287 258.122 353.94Z" fill="black"/>
<path d="M344.553 430.8H326.353V335.6H344.553V430.8ZM397.473 367.8C397.473 375.08 396.026 381.287 393.133 386.42C390.24 391.553 386.413 395.427 381.653 398.04C376.986 400.653 371.946 401.96 366.533 401.96C361.026 401.96 356.22 400.56 352.113 397.76C348.1 394.96 344.973 390.993 342.733 385.86C340.586 380.727 339.513 374.707 339.513 367.8C339.513 360.8 340.586 354.78 342.733 349.74C344.973 344.607 348.1 340.64 352.113 337.84C356.22 335.04 361.026 333.64 366.533 333.64C371.946 333.64 376.986 334.947 381.653 337.56C386.413 340.173 390.24 344.047 393.133 349.18C396.026 354.22 397.473 360.427 397.473 367.8ZM378.713 367.8C378.713 363.973 377.92 360.707 376.333 358C374.746 355.293 372.6 353.24 369.893 351.84C367.28 350.44 364.386 349.74 361.213 349.74C358.506 349.74 355.846 350.44 353.233 351.84C350.713 353.147 348.613 355.153 346.933 357.86C345.346 360.567 344.553 363.88 344.553 367.8C344.553 371.72 345.346 375.033 346.933 377.74C348.613 380.447 350.713 382.5 353.233 383.9C355.846 385.207 358.506 385.86 361.213 385.86C364.386 385.86 367.28 385.16 369.893 383.76C372.6 382.36 374.746 380.307 376.333 377.6C377.92 374.893 378.713 371.627 378.713 367.8Z" fill="black"/>
<path d="M408.752 367.8C408.752 361.08 410.292 355.2 413.372 350.16C416.545 345.12 420.792 341.2 426.112 338.4C431.525 335.6 437.639 334.2 444.452 334.2C451.265 334.2 457.332 335.6 462.652 338.4C468.065 341.2 472.312 345.12 475.392 350.16C478.565 355.2 480.152 361.08 480.152 367.8C480.152 374.427 478.565 380.307 475.392 385.44C472.312 390.48 468.065 394.4 462.652 397.2C457.332 400 451.265 401.4 444.452 401.4C437.639 401.4 431.525 400 426.112 397.2C420.792 394.4 416.545 390.48 413.372 385.44C410.292 380.307 408.752 374.427 408.752 367.8ZM427.232 367.8C427.232 371.44 427.979 374.66 429.472 377.46C431.059 380.167 433.159 382.313 435.772 383.9C438.385 385.393 441.279 386.14 444.452 386.14C447.625 386.14 450.519 385.393 453.132 383.9C455.745 382.313 457.799 380.167 459.292 377.46C460.879 374.66 461.672 371.44 461.672 367.8C461.672 364.16 460.879 360.94 459.292 358.14C457.799 355.34 455.745 353.193 453.132 351.7C450.519 350.207 447.625 349.46 444.452 349.46C441.279 349.46 438.385 350.207 435.772 351.7C433.159 353.193 431.059 355.34 429.472 358.14C427.979 360.94 427.232 364.16 427.232 367.8Z" fill="black"/>
<path d="M507.896 366.4H529.456C533.936 366.4 537.949 366.867 541.496 367.8C545.043 368.733 547.843 370.367 549.896 372.7C551.949 375.033 552.976 378.3 552.976 382.5C552.976 387.353 551.343 391.507 548.076 394.96C544.903 398.32 539.629 400 532.256 400H507.896V387.82H526.516C529.783 387.82 532.116 387.073 533.516 385.58C535.009 384.087 535.756 382.407 535.756 380.54C535.756 379.513 535.569 378.627 535.196 377.88C534.823 377.04 534.263 376.293 533.516 375.64C532.863 374.893 531.929 374.38 530.716 374.1C529.596 373.727 528.196 373.54 526.516 373.54H507.896V366.4ZM507.896 369.2V361.36H525.116C526.329 361.36 527.403 361.22 528.336 360.94C529.363 360.567 530.203 360.053 530.856 359.4C531.509 358.747 532.023 358 532.396 357.16C532.769 356.32 532.956 355.433 532.956 354.5C532.956 352.633 532.256 351.047 530.856 349.74C529.456 348.433 527.543 347.78 525.116 347.78H507.896V335.6H528.056C532.069 335.6 535.709 336.207 538.976 337.42C542.336 338.54 545.043 340.407 547.096 343.02C549.149 345.54 550.176 348.9 550.176 353.1C550.176 356.74 549.149 359.773 547.096 362.2C545.043 364.533 542.336 366.307 538.976 367.52C535.709 368.64 532.069 369.2 528.056 369.2H507.896ZM497.396 335.6H514.896V400H497.396V335.6Z" fill="black"/>
<path d="M581.109 380.82C581.109 382.593 581.576 384.087 582.509 385.3C583.443 386.42 584.703 387.307 586.289 387.96C587.969 388.52 589.789 388.8 591.749 388.8C594.643 388.8 597.303 388.333 599.729 387.4C602.156 386.467 604.069 384.927 605.469 382.78C606.869 380.633 607.569 377.787 607.569 374.24L609.809 381.8C609.809 385.907 608.736 389.453 606.589 392.44C604.443 395.333 601.549 397.573 597.909 399.16C594.363 400.653 590.349 401.4 585.869 401.4C581.483 401.4 577.563 400.653 574.109 399.16C570.656 397.667 567.903 395.473 565.849 392.58C563.889 389.593 562.909 385.953 562.909 381.66C562.909 377.273 564.029 373.54 566.269 370.46C568.603 367.287 571.823 364.86 575.929 363.18C580.129 361.5 585.029 360.66 590.629 360.66C594.083 360.66 597.303 361.08 600.289 361.92C603.276 362.76 605.796 363.74 607.849 364.86C609.903 365.98 611.349 367.053 612.189 368.08V376.9C609.576 374.94 606.869 373.493 604.069 372.56C601.269 371.627 597.956 371.16 594.129 371.16C591.329 371.16 588.949 371.58 586.989 372.42C585.029 373.26 583.536 374.38 582.509 375.78C581.576 377.18 581.109 378.86 581.109 380.82ZM575.369 353.94L568.789 341.48C572.056 339.707 576.069 338.027 580.829 336.44C585.589 334.76 590.863 333.92 596.649 333.92C602.249 333.92 607.149 334.713 611.349 336.3C615.643 337.887 619.003 340.22 621.429 343.3C623.856 346.287 625.069 349.973 625.069 354.36V400H607.569V357.3C607.569 354.407 606.449 352.167 604.209 350.58C601.969 348.9 599.076 348.06 595.529 348.06C592.449 348.06 589.556 348.433 586.849 349.18C584.236 349.833 581.903 350.627 579.849 351.56C577.889 352.493 576.396 353.287 575.369 353.94Z" fill="black"/>
<path d="M1016.76 360.306C1116.26 360.306 1196.91 279.648 1196.91 180.153C1196.91 80.6572 1116.26 0 1016.76 0C917.265 0 836.608 80.6572 836.608 180.153C836.608 279.648 917.265 360.306 1016.76 360.306Z" fill="#FCEA2B"/>
<path d="M959.99 377.715L921.386 417.076C887.535 390.893 842.209 383.808 813.521 350.768C809.648 330.058 803.59 274.998 827.555 295.208C865.069 270.153 860.694 305.646 904.006 316.403H905.52C900.72 295.42 892.584 296.533 908.548 280.826C935.753 310.657 935.359 353.387 960.02 377.715H959.99Z" fill="#FCEA2B"/>
<path d="M1122.73 283.097C1134.78 289.562 1126.41 310.544 1126.52 318.673C1139.39 314.888 1163.61 300.506 1178.75 288.395C1190.82 288.75 1238.98 298.092 1222.65 314.131C1222.65 314.131 1231.73 317.159 1222.65 336.84C1217.35 340.625 1221.14 355.006 1215.08 362.576C1183.77 393.876 1131.36 386.17 1113.65 417.833L1074.29 378.472C1102.22 353.038 1089.11 303.088 1122.73 283.097Z" fill="#FCEA2B"/>
<path d="M1169.66 263.416C1183.29 237.68 1190.86 208.916 1190.86 180.152C1190.86 84.02 1112.89 6.05469 1016.76 6.05469C920.629 6.05469 842.664 84.02 842.664 180.152C842.664 208.159 849.476 236.166 863.101 261.145C863.101 261.902 863.101 261.902 863.858 262.659" stroke="black" stroke-width="2" stroke-linecap="round" stroke-linejoin="round"/>
<path d="M968.316 347.437C984.212 351.978 1000.11 354.249 1016.76 354.249C1032.66 354.249 1048.55 351.978 1063.69 348.193" stroke="black" stroke-width="2" stroke-linecap="round" stroke-linejoin="round"/>
<path d="M1090.94 249.791C1047.8 285.367 985.726 285.367 942.58 249.791" stroke="black" stroke-width="2" stroke-linecap="round" stroke-linejoin="round"/>
<path d="M984.212 160.471C976.643 142.304 955.448 133.978 937.282 142.304C928.955 146.089 922.9 152.145 919.115 160.471" stroke="black" stroke-width="2" stroke-miterlimit="10" stroke-linecap="round"/>
<path d="M1114.41 160.471C1106.84 142.304 1085.64 133.978 1067.48 142.304C1059.15 146.089 1053.09 152.145 1049.31 160.471" stroke="black" stroke-width="2" stroke-miterlimit="10" stroke-linecap="round"/>
<path d="M958.476 374.687C951.69 368.901 946.713 364.347 944.851 356.52C943.015 333.94 933.126 312.852 923.657 295.208C921.386 291.423 916.844 280.069 912.302 278.555C905.49 276.284 900.948 278.555 899.434 286.881C897.921 295.208 903.976 311.86 905.49 316.402C887.649 306.918 870.89 295.912 857.046 285.367C847.962 280.069 840.393 282.34 836.608 288.395C835.094 290.666 835.094 292.18 834.337 293.694C822.983 285.367 814.657 288.395 810.872 293.694C807.087 298.235 807.087 305.048 810.115 309.59C808.601 310.347 807.087 311.86 806.33 313.374C801.789 320.944 804.059 330.784 811.629 335.326C813.143 336.083 815.414 338.353 818.441 339.867C817.684 340.624 816.927 340.624 816.927 341.381C813.143 345.923 813.143 353.492 816.927 358.034C829.039 379.228 885.052 395.124 903.976 399.666L917.601 413.291" stroke="black" stroke-width="2" stroke-linecap="round" stroke-linejoin="round"/>
<path d="M1112.14 413.291L1125.76 399.666C1144.68 395.124 1200.7 378.471 1212.81 358.034C1216.59 353.492 1216.59 345.923 1212.05 342.138C1211.3 341.381 1211.3 340.624 1210.54 340.624C1214.32 338.353 1216.59 336.082 1217.35 336.082C1224.92 331.541 1227.19 321.701 1222.65 314.131C1221.89 312.617 1220.38 311.103 1218.86 310.346C1221.89 305.805 1221.89 298.992 1218.11 294.451C1214.32 289.909 1206 286.124 1194.64 294.451C1194.64 292.18 1193.89 289.909 1192.37 289.152C1188.59 283.853 1181.77 280.826 1171.93 286.124C1171.93 286.124 1171.18 286.124 1171.18 286.881C1156.8 298.992 1140.14 308.833 1123.49 317.159C1127.29 307.425 1136.28 273.15 1118.95 278.555C1114.41 280.069 1109.86 291.423 1107.59 295.208C1094.44 314.214 1090.5 334.705 1086.4 356.52C1086.63 364.672 1078.25 369.206 1072.77 374.687" stroke="black" stroke-width="2" stroke-linecap="round" stroke-linejoin="round"/>
</svg>
