<svg width="1239" height="405" viewBox="0 0 1239 405" fill="none" xmlns="http://www.w3.org/2000/svg">
<path d="M1001.35 215.611C976.935 215.611 968.796 158.639 968.796 101.667C968.796 52.8334 1009.49 4 1082.74 4C1155.99 4 1196.68 52.8334 1196.68 101.667C1196.68 158.639 1188.55 215.611 1164.13 215.611" fill="#F4AA41"/>
<path d="M992.399 158.639C991.585 223.75 1025.77 272.583 1081.93 272.583C1139.71 272.583 1172.27 223.75 1172.27 158.639C1172.27 117.944 1109.6 54.4609 1109.6 54.4609C1068.09 78.0637 1049.37 100.039 999.724 110.619C985.074 131.78 994.026 132.594 992.399 158.639Z" fill="#FCEA2B"/>
<path d="M925.66 401.178V370.25C925.66 329.556 966.354 297 1007.05 297C1055.88 337.694 1104.72 337.694 1153.55 297C1194.24 297 1234.94 329.556 1234.94 370.25V401.178H925.66Z" fill="#3F3F3F"/>
<path d="M1170.64 401.178C1161.69 372.692 1146.22 336.88 1126.69 322.23H1037.98C1017.63 336.88 1002.98 372.692 993.212 401.178H1170.64Z" fill="#EA5A47"/>
<path d="M1123.43 401.992C1127.5 394.667 1131.57 386.529 1134.83 379.204C1130.25 378.669 1125.97 376.671 1122.62 373.506C1119.5 370.79 1117.47 367.028 1116.92 362.926H1080.3H1043.67C1043.5 364.655 1042.95 366.324 1042.05 367.809C1041.17 370.01 1039.77 371.965 1037.98 373.506C1034.63 376.671 1030.34 378.669 1025.77 379.204C1029.84 386.529 1033.91 394.667 1037.98 401.992H1123.43Z" fill="#FCEA2B"/>
<path d="M993.212 143.989C1004.22 144.413 1015.06 141.273 1024.14 135.036C1035.53 125.27 1049.37 117.131 1069.72 131.781C1073.41 134.233 1077.56 135.896 1081.93 136.664C1086.33 136.045 1090.52 134.37 1094.13 131.781C1114.48 117.131 1128.32 125.27 1139.71 135.036C1148.84 141.169 1159.65 144.299 1170.64 143.989L1169.83 157.011C1158.82 156.587 1147.97 159.727 1138.9 165.964C1127.5 175.731 1113.67 183.87 1093.32 169.22C1089.63 166.767 1085.48 165.105 1081.11 164.336C1076.71 164.955 1072.52 166.631 1068.9 169.22C1048.56 183.87 1034.72 175.731 1023.33 165.964C1014.2 159.831 1003.39 156.701 992.399 157.011L993.212 143.989Z" fill="#EA5A47"/>
<path d="M1024.95 309.209C1011.33 313.89 999.11 321.941 989.433 332.614C979.757 343.287 972.937 356.234 969.61 370.251" fill="#3F3F3F"/>
<path d="M1137.27 311.65C1150.9 316.331 1163.11 324.383 1172.79 335.055C1182.47 345.728 1189.29 358.675 1192.62 372.692" fill="#3F3F3F"/>
<path d="M954.96 341.764C963.81 330.415 974.889 320.998 987.515 314.091C996.019 309.9 1005.06 306.888 1014.37 305.139" stroke="black" stroke-width="8" stroke-miterlimit="10" stroke-linecap="round"/>
<path d="M1024.95 309.208C1011.33 313.889 999.11 321.94 989.433 332.613C979.757 343.286 972.937 356.233 969.61 370.25" stroke="black" stroke-width="8" stroke-miterlimit="10" stroke-linecap="round"/>
<path d="M1208.08 343.392C1199.23 332.043 1188.15 322.626 1175.52 315.719C1167.02 311.528 1157.98 308.516 1148.67 306.767" stroke="black" stroke-width="8" stroke-miterlimit="10" stroke-linecap="round"/>
<path d="M1137.27 311.65C1150.9 316.331 1163.11 324.383 1172.79 335.055C1182.47 345.728 1189.29 358.675 1192.62 372.692" stroke="black" stroke-width="8" stroke-miterlimit="10" stroke-linecap="round"/>
<path d="M1031.47 317.348C1016.55 331.983 1004.66 349.404 996.468 368.623C992.908 376.454 990.18 384.638 988.329 393.039" stroke="black" stroke-width="8" stroke-miterlimit="10" stroke-linecap="round"/>
<path d="M925.66 393.039V368.622C925.66 327.928 966.354 295.372 1007.05 295.372C1055.88 336.067 1104.72 336.067 1153.55 295.372C1194.24 295.372 1234.94 327.928 1234.94 368.622V393.039" stroke="black" stroke-width="8" stroke-linecap="round" stroke-linejoin="round"/>
<path d="M1132.39 317.348C1146.17 332.724 1157.68 349.99 1166.57 368.623C1170.52 376.466 1173.79 384.635 1176.34 393.039" stroke="black" stroke-width="8" stroke-miterlimit="10" stroke-linecap="round"/>
<path d="M1040.42 388.969L1032.28 373.505C1036.29 372.682 1039.97 370.701 1042.86 367.808C1045.75 364.915 1047.73 361.236 1048.56 357.228H1112.85C1113.28 361.401 1115.13 365.301 1118.09 368.267C1121.06 371.233 1124.96 373.084 1129.13 373.505C1129.13 374.319 1120.99 388.155 1120.99 388.155" stroke="black" stroke-width="8" stroke-linecap="round" stroke-linejoin="round"/>
<path d="M993.212 143.989C1004.22 144.413 1015.06 141.273 1024.14 135.036C1035.53 125.27 1049.37 117.131 1069.72 131.781C1073.41 134.233 1077.56 135.896 1081.93 136.664C1086.33 136.045 1090.52 134.37 1094.13 131.781C1114.48 117.131 1128.32 125.27 1139.71 135.036C1148.84 141.169 1159.65 144.299 1170.64 143.989L1169.83 157.011C1158.82 156.587 1147.97 159.727 1138.9 165.964C1127.5 175.731 1113.67 183.87 1093.32 169.22C1089.63 166.767 1085.48 165.105 1081.11 164.336C1076.71 164.955 1072.52 166.631 1068.9 169.22C1048.56 183.87 1034.72 175.731 1023.33 165.964C1014.2 159.831 1003.39 156.701 992.399 157.011L993.212 143.989Z" stroke="black" stroke-width="8" stroke-linejoin="round"/>
<path d="M1001.35 223.75C968.796 223.75 968.796 174.917 968.796 117.944C968.796 60.9722 1001.35 4 1082.74 4C1164.13 4 1196.68 60.9722 1196.68 117.944C1196.68 174.917 1196.68 223.75 1164.13 223.75" stroke="black" stroke-width="8" stroke-linecap="round" stroke-linejoin="round"/>
<path d="M1130.76 150.499C1130.76 153.719 1129.81 156.866 1128.02 159.543C1126.23 162.22 1123.69 164.306 1120.71 165.538C1117.74 166.77 1114.46 167.093 1111.31 166.464C1108.15 165.836 1105.25 164.286 1102.97 162.01C1100.7 159.733 1099.15 156.833 1098.52 153.675C1097.89 150.518 1098.21 147.245 1099.44 144.27C1100.68 141.296 1102.76 138.754 1105.44 136.965C1108.12 135.176 1111.26 134.222 1114.48 134.222C1118.8 134.234 1122.93 135.953 1125.98 139.003C1129.03 142.053 1130.75 146.186 1130.76 150.499Z" fill="black"/>
<path d="M1065.65 150.499C1065.65 153.719 1064.69 156.866 1062.91 159.543C1061.12 162.22 1058.57 164.306 1055.6 165.538C1052.63 166.77 1049.35 167.093 1046.2 166.464C1043.04 165.836 1040.14 164.286 1037.86 162.01C1035.58 159.733 1034.03 156.833 1033.41 153.675C1032.78 150.518 1033.1 147.245 1034.33 144.27C1035.56 141.296 1037.65 138.754 1040.33 136.965C1043 135.176 1046.15 134.222 1049.37 134.222C1053.68 134.234 1057.82 135.953 1060.87 139.003C1063.92 142.053 1065.64 146.186 1065.65 150.499Z" fill="black"/>
<path d="M992.399 158.639C992.399 231.889 1032.28 272.583 1081.93 272.583C1129.95 272.583 1172.27 231.889 1172.27 158.639C1172.47 144.65 1169.69 130.779 1164.13 117.944C1139.71 93.5274 1107.16 52.833 1107.16 52.833C1074.6 77.2497 1050.18 101.666 1001.35 109.805C1001.35 109.805 992.399 117.944 992.399 158.639Z" stroke="black" stroke-width="8" stroke-linejoin="round"/>
<path d="M1058.32 215.611C1065.9 219.425 1074.26 221.411 1082.74 221.411C1091.22 221.411 1099.58 219.425 1107.16 215.611" stroke="black" stroke-width="8" stroke-linecap="round" stroke-linejoin="round"/>
<path d="M20.62 74.3V65.2H36.44C39.3334 65.2 41.8534 64.7333 44 63.8C46.1467 62.8667 47.78 61.5133 48.9 59.74C50.1134 57.9667 50.72 55.8667 50.72 53.44C50.72 49.7067 49.4134 46.86 46.8 44.9C44.28 42.94 40.8267 41.96 36.44 41.96H25.66V108.04H38.54C41.9 108.04 44.9334 107.573 47.64 106.64C50.3467 105.613 52.4467 104.027 53.94 101.88C55.5267 99.7333 56.32 96.98 56.32 93.62C56.32 91.1933 55.8534 89.14 54.92 87.46C54.08 85.6867 52.82 84.24 51.14 83.12C49.5534 81.9067 47.6867 81.0667 45.54 80.6C43.3934 80.04 41.06 79.76 38.54 79.76H20.62V68.84H40.36C45.12 68.84 49.6467 69.3533 53.94 70.38C58.3267 71.4067 62.2467 73.04 65.7 75.28C69.1534 77.4267 71.86 80.2267 73.82 83.68C75.8734 87.1333 76.9 91.2867 76.9 96.14C76.9 102.58 75.36 107.853 72.28 111.96C69.2934 116.067 65.0467 119.1 59.54 121.06C54.0334 123.02 47.64 124 40.36 124H5.64004V26H38.26C44.7934 26 50.5334 26.9333 55.48 28.8C60.4267 30.5733 64.3 33.28 67.1 36.92C69.9 40.56 71.3 45.18 71.3 50.78C71.3 55.7267 69.9 59.9733 67.1 63.52C64.3 67.0667 60.4267 69.7733 55.48 71.64C50.5334 73.4133 44.7934 74.3 38.26 74.3H20.62Z" fill="black"/>
<path d="M87.9404 91.8C87.9404 85.08 89.4803 79.2 92.5603 74.16C95.7337 69.12 99.9804 65.2 105.3 62.4C110.714 59.6 116.827 58.2 123.64 58.2C130.454 58.2 136.52 59.6 141.84 62.4C147.254 65.2 151.5 69.12 154.58 74.16C157.754 79.2 159.34 85.08 159.34 91.8C159.34 98.4267 157.754 104.307 154.58 109.44C151.5 114.48 147.254 118.4 141.84 121.2C136.52 124 130.454 125.4 123.64 125.4C116.827 125.4 110.714 124 105.3 121.2C99.9804 118.4 95.7337 114.48 92.5603 109.44C89.4803 104.307 87.9404 98.4267 87.9404 91.8ZM106.42 91.8C106.42 95.44 107.167 98.66 108.66 101.46C110.247 104.167 112.347 106.313 114.96 107.9C117.574 109.393 120.467 110.14 123.64 110.14C126.814 110.14 129.707 109.393 132.32 107.9C134.934 106.313 136.987 104.167 138.48 101.46C140.067 98.66 140.86 95.44 140.86 91.8C140.86 88.16 140.067 84.94 138.48 82.14C136.987 79.34 134.934 77.1933 132.32 75.7C129.707 74.2067 126.814 73.46 123.64 73.46C120.467 73.46 117.574 74.2067 114.96 75.7C112.347 77.1933 110.247 79.34 108.66 82.14C107.167 84.94 106.42 88.16 106.42 91.8Z" fill="black"/>
<path d="M237.204 59.6V124H219.704V76.12H193.104V101.6C193.104 106.64 192.218 110.84 190.444 114.2C188.671 117.467 185.731 119.94 181.624 121.62C177.611 123.207 172.198 124 165.384 124V107.76C168.184 107.76 170.564 107.153 172.524 105.94C174.578 104.633 175.604 101.973 175.604 97.96V59.6H237.204Z" fill="black"/>
<path d="M252.96 91.8C252.96 85.08 254.5 79.2 257.58 74.16C260.753 69.12 265 65.2 270.32 62.4C275.733 59.6 281.847 58.2 288.66 58.2C295.473 58.2 301.54 59.6 306.86 62.4C312.273 65.2 316.52 69.12 319.6 74.16C322.773 79.2 324.36 85.08 324.36 91.8C324.36 98.4267 322.773 104.307 319.6 109.44C316.52 114.48 312.273 118.4 306.86 121.2C301.54 124 295.473 125.4 288.66 125.4C281.847 125.4 275.733 124 270.32 121.2C265 118.4 260.753 114.48 257.58 109.44C254.5 104.307 252.96 98.4267 252.96 91.8ZM271.44 91.8C271.44 95.44 272.187 98.66 273.68 101.46C275.267 104.167 277.367 106.313 279.98 107.9C282.593 109.393 285.487 110.14 288.66 110.14C291.833 110.14 294.727 109.393 297.34 107.9C299.953 106.313 302.007 104.167 303.5 101.46C305.087 98.66 305.88 95.44 305.88 91.8C305.88 88.16 305.087 84.94 303.5 82.14C302.007 79.34 299.953 77.1933 297.34 75.7C294.727 74.2067 291.833 73.46 288.66 73.46C285.487 73.46 282.593 74.2067 279.98 75.7C277.367 77.1933 275.267 79.34 273.68 82.14C272.187 84.94 271.44 88.16 271.44 91.8Z" fill="black"/>
<path d="M344.544 97.12V82.98H395.224V97.12H344.544ZM386.404 59.6H403.904V124H386.404V59.6ZM337.964 59.6H355.464V124H337.964V59.6Z" fill="black"/>
<path d="M413.513 59.6H456.353V74.86H413.513V59.6ZM426.253 62.4H443.753V124H426.253V62.4Z" fill="black"/>
<path d="M470.039 95.86V84.66H508.539C508.165 81.86 507.419 79.4333 506.299 77.38C505.179 75.3267 503.639 73.74 501.679 72.62C499.719 71.5 497.245 70.94 494.259 70.94C491.179 70.94 488.425 71.64 485.999 73.04C483.572 74.3467 481.659 76.3067 480.259 78.92C478.859 81.5333 478.159 84.6133 478.159 88.16L477.879 91.8C477.879 96.3733 478.579 100.153 479.979 103.14C481.472 106.033 483.479 108.18 485.999 109.58C488.519 110.887 491.365 111.54 494.539 111.54C497.339 111.54 499.812 111.167 501.959 110.42C504.105 109.673 506.019 108.6 507.699 107.2C509.379 105.8 510.779 104.167 511.899 102.3L527.719 107.2C525.572 110.84 523.052 114.06 520.159 116.86C517.265 119.567 513.719 121.667 509.519 123.16C505.412 124.653 500.372 125.4 494.399 125.4C487.212 125.4 481.005 123.953 475.779 121.06C470.552 118.167 466.539 114.2 463.739 109.16C461.032 104.027 459.679 98.24 459.679 91.8C459.679 90.5867 459.725 89.42 459.819 88.3C459.912 87.18 460.052 86.06 460.239 84.94C461.172 79.62 463.085 74.9533 465.979 70.94C468.872 66.9267 472.745 63.8 477.599 61.56C482.452 59.32 488.099 58.2 494.539 58.2C501.632 58.2 507.652 59.5533 512.599 62.26C517.639 64.8733 521.465 68.6067 524.079 73.46C526.692 78.3133 527.999 84.1467 527.999 90.96C527.999 91.52 527.999 92.22 527.999 93.06C527.999 93.9 527.905 94.8333 527.719 95.86H470.039Z" fill="black"/>
<path d="M559.728 154.8H541.528V59.6H559.728V154.8ZM612.648 91.8C612.648 99.08 611.202 105.287 608.308 110.42C605.415 115.553 601.588 119.427 596.828 122.04C592.162 124.653 587.122 125.96 581.708 125.96C576.202 125.96 571.395 124.56 567.288 121.76C563.275 118.96 560.148 114.993 557.908 109.86C555.762 104.727 554.688 98.7067 554.688 91.8C554.688 84.8 555.762 78.78 557.908 73.74C560.148 68.6067 563.275 64.64 567.288 61.84C571.395 59.04 576.202 57.64 581.708 57.64C587.122 57.64 592.162 58.9467 596.828 61.56C601.588 64.1733 605.415 68.0467 608.308 73.18C611.202 78.22 612.648 84.4267 612.648 91.8ZM593.888 91.8C593.888 87.9733 593.095 84.7067 591.508 82C589.922 79.2933 587.775 77.24 585.068 75.84C582.455 74.44 579.562 73.74 576.388 73.74C573.682 73.74 571.022 74.44 568.408 75.84C565.888 77.1467 563.788 79.1533 562.108 81.86C560.522 84.5667 559.728 87.88 559.728 91.8C559.728 95.72 560.522 99.0333 562.108 101.74C563.788 104.447 565.888 106.5 568.408 107.9C571.022 109.207 573.682 109.86 576.388 109.86C579.562 109.86 582.455 109.16 585.068 107.76C587.775 106.36 589.922 104.307 591.508 101.6C593.095 98.8933 593.888 95.6267 593.888 91.8Z" fill="black"/>
<path d="M639.887 91.8C639.887 95.5333 640.727 98.8 642.407 101.6C644.087 104.4 646.327 106.593 649.127 108.18C652.02 109.767 655.194 110.56 658.647 110.56C661.447 110.56 664.154 110.14 666.767 109.3C669.38 108.367 671.714 107.153 673.767 105.66C675.914 104.073 677.547 102.253 678.667 100.2V118.82C676.427 120.873 673.487 122.507 669.847 123.72C666.3 124.84 662.147 125.4 657.387 125.4C650.574 125.4 644.414 124 638.907 121.2C633.494 118.4 629.2 114.48 626.027 109.44C622.947 104.307 621.407 98.4267 621.407 91.8C621.407 85.08 622.947 79.2 626.027 74.16C629.2 69.12 633.494 65.2 638.907 62.4C644.414 59.6 650.574 58.2 657.387 58.2C662.147 58.2 666.3 58.8067 669.847 60.02C673.487 61.14 676.427 62.68 678.667 64.64V83.26C677.547 81.2067 675.867 79.4333 673.627 77.94C671.48 76.3533 669.1 75.14 666.487 74.3C663.874 73.46 661.26 73.04 658.647 73.04C655.194 73.04 652.02 73.88 649.127 75.56C646.327 77.1467 644.087 79.34 642.407 82.14C640.727 84.94 639.887 88.16 639.887 91.8Z" fill="black"/>
<path d="M694.243 59.6H711.743V124H694.243V59.6ZM735.403 59.6H757.103L729.383 86.2L759.903 124H738.343L707.683 86.2L735.403 59.6Z" fill="black"/>
<path d="M782.328 104.82C782.328 106.593 782.795 108.087 783.728 109.3C784.662 110.42 785.922 111.307 787.508 111.96C789.188 112.52 791.008 112.8 792.968 112.8C795.862 112.8 798.522 112.333 800.948 111.4C803.375 110.467 805.288 108.927 806.688 106.78C808.088 104.633 808.788 101.787 808.788 98.24L811.028 105.8C811.028 109.907 809.955 113.453 807.808 116.44C805.662 119.333 802.768 121.573 799.128 123.16C795.582 124.653 791.568 125.4 787.088 125.4C782.702 125.4 778.782 124.653 775.328 123.16C771.875 121.667 769.122 119.473 767.068 116.58C765.108 113.593 764.128 109.953 764.128 105.66C764.128 101.273 765.248 97.54 767.488 94.46C769.822 91.2867 773.042 88.86 777.148 87.18C781.348 85.5 786.248 84.66 791.848 84.66C795.302 84.66 798.522 85.08 801.508 85.92C804.495 86.76 807.015 87.74 809.068 88.86C811.122 89.98 812.568 91.0533 813.408 92.08V100.9C810.795 98.94 808.088 97.4933 805.288 96.56C802.488 95.6267 799.175 95.16 795.348 95.16C792.548 95.16 790.168 95.58 788.208 96.42C786.248 97.26 784.755 98.38 783.728 99.78C782.795 101.18 782.328 102.86 782.328 104.82ZM776.588 77.94L770.008 65.48C773.275 63.7067 777.288 62.0267 782.048 60.44C786.808 58.76 792.082 57.92 797.868 57.92C803.468 57.92 808.368 58.7133 812.568 60.3C816.862 61.8867 820.222 64.22 822.648 67.3C825.075 70.2867 826.288 73.9733 826.288 78.36V124H808.788V81.3C808.788 78.4067 807.668 76.1667 805.428 74.58C803.188 72.9 800.295 72.06 796.748 72.06C793.668 72.06 790.775 72.4333 788.068 73.18C785.455 73.8333 783.122 74.6267 781.068 75.56C779.108 76.4933 777.615 77.2867 776.588 77.94Z" fill="black"/>
<path d="M859.38 124H840.34L861.2 93.34H878.98L859.38 124ZM901.66 124H883.6V59.6H901.66V124ZM890.04 87.18V100.06H870.02C865.633 100.06 861.48 99.36 857.56 97.96C853.64 96.4667 850.513 94.2267 848.18 91.24C845.846 88.16 844.68 84.24 844.68 79.48C844.68 74.6267 845.846 70.7533 848.18 67.86C850.513 64.9667 853.64 62.8667 857.56 61.56C861.48 60.2533 865.633 59.6 870.02 59.6H890.04V74.16H872.12C869.973 74.16 868.2 74.3933 866.8 74.86C865.4 75.3267 864.326 76.0267 863.58 76.96C862.833 77.8933 862.46 79.1533 862.46 80.74C862.46 82.2333 862.833 83.4933 863.58 84.52C864.326 85.4533 865.4 86.1533 866.8 86.62C868.2 86.9933 869.973 87.18 872.12 87.18H890.04Z" fill="black"/>
<path d="M3.54004 184.6H21.04V249H3.54004V184.6ZM44.7 184.6H66.4L38.68 211.2L69.2 249H47.64L16.98 211.2L44.7 184.6Z" fill="black"/>
<path d="M72.3544 216.8C72.3544 210.08 73.8944 204.2 76.9744 199.16C80.1477 194.12 84.3944 190.2 89.7144 187.4C95.1277 184.6 101.241 183.2 108.054 183.2C114.868 183.2 120.934 184.6 126.254 187.4C131.668 190.2 135.914 194.12 138.994 199.16C142.168 204.2 143.754 210.08 143.754 216.8C143.754 223.427 142.168 229.307 138.994 234.44C135.914 239.48 131.668 243.4 126.254 246.2C120.934 249 114.868 250.4 108.054 250.4C101.241 250.4 95.1277 249 89.7144 246.2C84.3944 243.4 80.1477 239.48 76.9744 234.44C73.8944 229.307 72.3544 223.427 72.3544 216.8ZM90.8344 216.8C90.8344 220.44 91.5811 223.66 93.0744 226.46C94.6611 229.167 96.7611 231.313 99.3744 232.9C101.988 234.393 104.881 235.14 108.054 235.14C111.228 235.14 114.121 234.393 116.734 232.9C119.348 231.313 121.401 229.167 122.894 226.46C124.481 223.66 125.274 220.44 125.274 216.8C125.274 213.16 124.481 209.94 122.894 207.14C121.401 204.34 119.348 202.193 116.734 200.7C114.121 199.207 111.228 198.46 108.054 198.46C104.881 198.46 101.988 199.207 99.3744 200.7C96.7611 202.193 94.6611 204.34 93.0744 207.14C91.5811 209.94 90.8344 213.16 90.8344 216.8Z" fill="black"/>
<path d="M218.818 249L209.578 202.66L218.818 179.7L237.438 249H218.818ZM188.858 233.32L218.818 179.7L220.218 206.3L193.058 253.34L188.858 233.32ZM193.058 253.34L166.318 206.3L167.718 179.7L197.258 233.32L193.058 253.34ZM149.098 249L167.718 179.7L176.958 202.66L167.718 249H149.098Z" fill="black"/>
<path d="M259.926 229.82C259.926 231.593 260.393 233.087 261.326 234.3C262.259 235.42 263.519 236.307 265.106 236.96C266.786 237.52 268.606 237.8 270.566 237.8C273.459 237.8 276.119 237.333 278.546 236.4C280.973 235.467 282.886 233.927 284.286 231.78C285.686 229.633 286.386 226.787 286.386 223.24L288.626 230.8C288.626 234.907 287.553 238.453 285.406 241.44C283.259 244.333 280.366 246.573 276.726 248.16C273.179 249.653 269.166 250.4 264.686 250.4C260.299 250.4 256.379 249.653 252.926 248.16C249.473 246.667 246.719 244.473 244.666 241.58C242.706 238.593 241.726 234.953 241.726 230.66C241.726 226.273 242.846 222.54 245.086 219.46C247.419 216.287 250.639 213.86 254.746 212.18C258.946 210.5 263.846 209.66 269.446 209.66C272.899 209.66 276.119 210.08 279.106 210.92C282.093 211.76 284.613 212.74 286.666 213.86C288.719 214.98 290.166 216.053 291.006 217.08V225.9C288.393 223.94 285.686 222.493 282.886 221.56C280.086 220.627 276.773 220.16 272.946 220.16C270.146 220.16 267.766 220.58 265.806 221.42C263.846 222.26 262.353 223.38 261.326 224.78C260.393 226.18 259.926 227.86 259.926 229.82ZM254.186 202.94L247.606 190.48C250.873 188.707 254.886 187.027 259.646 185.44C264.406 183.76 269.679 182.92 275.466 182.92C281.066 182.92 285.966 183.713 290.166 185.3C294.459 186.887 297.819 189.22 300.246 192.3C302.673 195.287 303.886 198.973 303.886 203.36V249H286.386V206.3C286.386 203.407 285.266 201.167 283.026 199.58C280.786 197.9 277.893 197.06 274.346 197.06C271.266 197.06 268.373 197.433 265.666 198.18C263.053 198.833 260.719 199.627 258.666 200.56C256.706 201.493 255.213 202.287 254.186 202.94Z" fill="black"/>
<path d="M327.317 222.12V207.98H377.997V222.12H327.317ZM369.177 184.6H386.677V249H369.177V184.6ZM320.737 184.6H338.237V249H320.737V184.6Z" fill="black"/>
<path d="M443.466 208.12L426.946 244.8L409.026 241.86L443.466 179.7L478.046 241.86L459.986 244.8L443.466 208.12ZM468.526 249H419.106V261.6H401.186V234.3H485.746V261.6H468.526V249Z" fill="black"/>
<path d="M513.949 229.82C513.949 231.593 514.416 233.087 515.349 234.3C516.283 235.42 517.543 236.307 519.129 236.96C520.809 237.52 522.629 237.8 524.589 237.8C527.483 237.8 530.143 237.333 532.569 236.4C534.996 235.467 536.909 233.927 538.309 231.78C539.709 229.633 540.409 226.787 540.409 223.24L542.649 230.8C542.649 234.907 541.576 238.453 539.429 241.44C537.283 244.333 534.389 246.573 530.749 248.16C527.203 249.653 523.189 250.4 518.709 250.4C514.323 250.4 510.403 249.653 506.949 248.16C503.496 246.667 500.743 244.473 498.689 241.58C496.729 238.593 495.749 234.953 495.749 230.66C495.749 226.273 496.869 222.54 499.109 219.46C501.443 216.287 504.663 213.86 508.769 212.18C512.969 210.5 517.869 209.66 523.469 209.66C526.923 209.66 530.143 210.08 533.129 210.92C536.116 211.76 538.636 212.74 540.689 213.86C542.743 214.98 544.189 216.053 545.029 217.08V225.9C542.416 223.94 539.709 222.493 536.909 221.56C534.109 220.627 530.796 220.16 526.969 220.16C524.169 220.16 521.789 220.58 519.829 221.42C517.869 222.26 516.376 223.38 515.349 224.78C514.416 226.18 513.949 227.86 513.949 229.82ZM508.209 202.94L501.629 190.48C504.896 188.707 508.909 187.027 513.669 185.44C518.429 183.76 523.703 182.92 529.489 182.92C535.089 182.92 539.989 183.713 544.189 185.3C548.483 186.887 551.843 189.22 554.269 192.3C556.696 195.287 557.909 198.973 557.909 203.36V249H540.409V206.3C540.409 203.407 539.289 201.167 537.049 199.58C534.809 197.9 531.916 197.06 528.369 197.06C525.289 197.06 522.396 197.433 519.689 198.18C517.076 198.833 514.743 199.627 512.689 200.56C510.729 201.493 509.236 202.287 508.209 202.94Z" fill="black"/>
<path d="M21.74 325C21.74 331.44 23.1867 337.087 26.08 341.94C29.0667 346.7 32.94 350.387 37.7 353C42.46 355.52 47.64 356.78 53.24 356.78C57.9067 356.78 62.06 356.173 65.7 354.96C69.34 353.747 72.6067 352.113 75.5 350.06C78.4867 348.007 81.0534 345.767 83.2 343.34V365.88C79.1867 369.053 74.8 371.527 70.04 373.3C65.3734 375.073 59.4467 375.96 52.26 375.96C44.7934 375.96 37.84 374.747 31.4 372.32C25.0534 369.893 19.5 366.393 14.74 361.82C10.0734 357.247 6.43337 351.88 3.82004 345.72C1.30004 339.467 0.0400391 332.56 0.0400391 325C0.0400391 317.44 1.30004 310.58 3.82004 304.42C6.43337 298.167 10.0734 292.753 14.74 288.18C19.5 283.607 25.0534 280.107 31.4 277.68C37.84 275.253 44.7934 274.04 52.26 274.04C59.4467 274.04 65.3734 274.927 70.04 276.7C74.8 278.473 79.1867 280.947 83.2 284.12V306.66C81.0534 304.233 78.4867 301.993 75.5 299.94C72.6067 297.887 69.34 296.253 65.7 295.04C62.06 293.827 57.9067 293.22 53.24 293.22C47.64 293.22 42.46 294.527 37.7 297.14C32.94 299.66 29.0667 303.3 26.08 308.06C23.1867 312.82 21.74 318.467 21.74 325Z" fill="black"/>
<path d="M114.321 354.82C114.321 356.593 114.787 358.087 115.721 359.3C116.654 360.42 117.914 361.307 119.501 361.96C121.181 362.52 123.001 362.8 124.961 362.8C127.854 362.8 130.514 362.333 132.941 361.4C135.367 360.467 137.281 358.927 138.681 356.78C140.081 354.633 140.781 351.787 140.781 348.24L143.021 355.8C143.021 359.907 141.947 363.453 139.801 366.44C137.654 369.333 134.761 371.573 131.121 373.16C127.574 374.653 123.561 375.4 119.081 375.4C114.694 375.4 110.774 374.653 107.321 373.16C103.867 371.667 101.114 369.473 99.0605 366.58C97.1005 363.593 96.1205 359.953 96.1205 355.66C96.1205 351.273 97.2405 347.54 99.4805 344.46C101.814 341.287 105.034 338.86 109.141 337.18C113.341 335.5 118.241 334.66 123.841 334.66C127.294 334.66 130.514 335.08 133.501 335.92C136.487 336.76 139.007 337.74 141.061 338.86C143.114 339.98 144.561 341.053 145.401 342.08V350.9C142.787 348.94 140.081 347.493 137.281 346.56C134.481 345.627 131.167 345.16 127.341 345.16C124.541 345.16 122.161 345.58 120.201 346.42C118.241 347.26 116.747 348.38 115.721 349.78C114.787 351.18 114.321 352.86 114.321 354.82ZM108.581 327.94L102.001 315.48C105.267 313.707 109.281 312.027 114.041 310.44C118.801 308.76 124.074 307.92 129.861 307.92C135.461 307.92 140.361 308.713 144.561 310.3C148.854 311.887 152.214 314.22 154.641 317.3C157.067 320.287 158.281 323.973 158.281 328.36V374H140.781V331.3C140.781 328.407 139.661 326.167 137.421 324.58C135.181 322.9 132.287 322.06 128.741 322.06C125.661 322.06 122.767 322.433 120.061 323.18C117.447 323.833 115.114 324.627 113.061 325.56C111.101 326.493 109.607 327.287 108.581 327.94Z" fill="black"/>
<path d="M214.332 309.6H234.352L210.552 340.82L235.752 374H215.732L201.172 353.56L186.892 374H166.172L191.652 340.82L167.572 309.6H188.292L201.172 328.22L214.332 309.6Z" fill="black"/>
<path d="M257.602 354.82C257.602 356.593 258.068 358.087 259.002 359.3C259.935 360.42 261.195 361.307 262.782 361.96C264.462 362.52 266.282 362.8 268.242 362.8C271.135 362.8 273.795 362.333 276.222 361.4C278.648 360.467 280.562 358.927 281.962 356.78C283.362 354.633 284.062 351.787 284.062 348.24L286.302 355.8C286.302 359.907 285.228 363.453 283.082 366.44C280.935 369.333 278.042 371.573 274.402 373.16C270.855 374.653 266.842 375.4 262.362 375.4C257.975 375.4 254.055 374.653 250.602 373.16C247.148 371.667 244.395 369.473 242.342 366.58C240.382 363.593 239.402 359.953 239.402 355.66C239.402 351.273 240.522 347.54 242.762 344.46C245.095 341.287 248.315 338.86 252.422 337.18C256.622 335.5 261.522 334.66 267.122 334.66C270.575 334.66 273.795 335.08 276.782 335.92C279.768 336.76 282.288 337.74 284.342 338.86C286.395 339.98 287.842 341.053 288.682 342.08V350.9C286.068 348.94 283.362 347.493 280.562 346.56C277.762 345.627 274.448 345.16 270.622 345.16C267.822 345.16 265.442 345.58 263.482 346.42C261.522 347.26 260.028 348.38 259.002 349.78C258.068 351.18 257.602 352.86 257.602 354.82ZM251.862 327.94L245.282 315.48C248.548 313.707 252.562 312.027 257.322 310.44C262.082 308.76 267.355 307.92 273.142 307.92C278.742 307.92 283.642 308.713 287.842 310.3C292.135 311.887 295.495 314.22 297.922 317.3C300.348 320.287 301.562 323.973 301.562 328.36V374H284.062V331.3C284.062 328.407 282.942 326.167 280.702 324.58C278.462 322.9 275.568 322.06 272.022 322.06C268.942 322.06 266.048 322.433 263.342 323.18C260.728 323.833 258.395 324.627 256.342 325.56C254.382 326.493 252.888 327.287 251.862 327.94Z" fill="black"/>
<path d="M336.193 404.8H317.993V309.6H336.193V404.8ZM389.113 341.8C389.113 349.08 387.666 355.287 384.773 360.42C381.88 365.553 378.053 369.427 373.293 372.04C368.627 374.653 363.586 375.96 358.173 375.96C352.666 375.96 347.86 374.56 343.753 371.76C339.74 368.96 336.613 364.993 334.373 359.86C332.227 354.727 331.153 348.707 331.153 341.8C331.153 334.8 332.227 328.78 334.373 323.74C336.613 318.607 339.74 314.64 343.753 311.84C347.86 309.04 352.666 307.64 358.173 307.64C363.586 307.64 368.627 308.947 373.293 311.56C378.053 314.173 381.88 318.047 384.773 323.18C387.666 328.22 389.113 334.427 389.113 341.8ZM370.353 341.8C370.353 337.973 369.56 334.707 367.973 332C366.387 329.293 364.24 327.24 361.533 325.84C358.92 324.44 356.026 323.74 352.853 323.74C350.146 323.74 347.487 324.44 344.873 325.84C342.353 327.147 340.253 329.153 338.573 331.86C336.986 334.567 336.193 337.88 336.193 341.8C336.193 345.72 336.986 349.033 338.573 351.74C340.253 354.447 342.353 356.5 344.873 357.9C347.487 359.207 350.146 359.86 352.853 359.86C356.026 359.86 358.92 359.16 361.533 357.76C364.24 356.36 366.387 354.307 367.973 351.6C369.56 348.893 370.353 345.627 370.353 341.8Z" fill="black"/>
<path d="M398.292 341.8C398.292 335.08 399.832 329.2 402.912 324.16C406.085 319.12 410.332 315.2 415.652 312.4C421.065 309.6 427.179 308.2 433.992 308.2C440.805 308.2 446.872 309.6 452.192 312.4C457.605 315.2 461.852 319.12 464.932 324.16C468.105 329.2 469.692 335.08 469.692 341.8C469.692 348.427 468.105 354.307 464.932 359.44C461.852 364.48 457.605 368.4 452.192 371.2C446.872 374 440.805 375.4 433.992 375.4C427.179 375.4 421.065 374 415.652 371.2C410.332 368.4 406.085 364.48 402.912 359.44C399.832 354.307 398.292 348.427 398.292 341.8ZM416.772 341.8C416.772 345.44 417.519 348.66 419.012 351.46C420.599 354.167 422.699 356.313 425.312 357.9C427.925 359.393 430.819 360.14 433.992 360.14C437.165 360.14 440.059 359.393 442.672 357.9C445.285 356.313 447.339 354.167 448.832 351.46C450.419 348.66 451.212 345.44 451.212 341.8C451.212 338.16 450.419 334.94 448.832 332.14C447.339 329.34 445.285 327.193 442.672 325.7C440.059 324.207 437.165 323.46 433.992 323.46C430.819 323.46 427.925 324.207 425.312 325.7C422.699 327.193 420.599 329.34 419.012 332.14C417.519 334.94 416.772 338.16 416.772 341.8Z" fill="black"/>
<path d="M495.336 340.4H516.896C521.376 340.4 525.389 340.867 528.936 341.8C532.483 342.733 535.283 344.367 537.336 346.7C539.389 349.033 540.416 352.3 540.416 356.5C540.416 361.353 538.783 365.507 535.516 368.96C532.343 372.32 527.069 374 519.696 374H495.336V361.82H513.956C517.223 361.82 519.556 361.073 520.956 359.58C522.449 358.087 523.196 356.407 523.196 354.54C523.196 353.513 523.009 352.627 522.636 351.88C522.263 351.04 521.703 350.293 520.956 349.64C520.303 348.893 519.369 348.38 518.156 348.1C517.036 347.727 515.636 347.54 513.956 347.54H495.336V340.4ZM495.336 343.2V335.36H512.556C513.769 335.36 514.843 335.22 515.776 334.94C516.803 334.567 517.643 334.053 518.296 333.4C518.949 332.747 519.463 332 519.836 331.16C520.209 330.32 520.396 329.433 520.396 328.5C520.396 326.633 519.696 325.047 518.296 323.74C516.896 322.433 514.983 321.78 512.556 321.78H495.336V309.6H515.496C519.509 309.6 523.149 310.207 526.416 311.42C529.776 312.54 532.483 314.407 534.536 317.02C536.589 319.54 537.616 322.9 537.616 327.1C537.616 330.74 536.589 333.773 534.536 336.2C532.483 338.533 529.776 340.307 526.416 341.52C523.149 342.64 519.509 343.2 515.496 343.2H495.336ZM484.836 309.6H502.336V374H484.836V309.6Z" fill="black"/>
<path d="M566.449 354.82C566.449 356.593 566.916 358.087 567.849 359.3C568.783 360.42 570.043 361.307 571.629 361.96C573.309 362.52 575.129 362.8 577.089 362.8C579.983 362.8 582.643 362.333 585.069 361.4C587.496 360.467 589.409 358.927 590.809 356.78C592.209 354.633 592.909 351.787 592.909 348.24L595.149 355.8C595.149 359.907 594.076 363.453 591.929 366.44C589.783 369.333 586.889 371.573 583.249 373.16C579.703 374.653 575.689 375.4 571.209 375.4C566.823 375.4 562.903 374.653 559.449 373.16C555.996 371.667 553.243 369.473 551.189 366.58C549.229 363.593 548.249 359.953 548.249 355.66C548.249 351.273 549.369 347.54 551.609 344.46C553.943 341.287 557.163 338.86 561.269 337.18C565.469 335.5 570.369 334.66 575.969 334.66C579.423 334.66 582.643 335.08 585.629 335.92C588.616 336.76 591.136 337.74 593.189 338.86C595.243 339.98 596.689 341.053 597.529 342.08V350.9C594.916 348.94 592.209 347.493 589.409 346.56C586.609 345.627 583.296 345.16 579.469 345.16C576.669 345.16 574.289 345.58 572.329 346.42C570.369 347.26 568.876 348.38 567.849 349.78C566.916 351.18 566.449 352.86 566.449 354.82ZM560.709 327.94L554.129 315.48C557.396 313.707 561.409 312.027 566.169 310.44C570.929 308.76 576.203 307.92 581.989 307.92C587.589 307.92 592.489 308.713 596.689 310.3C600.983 311.887 604.343 314.22 606.769 317.3C609.196 320.287 610.409 323.973 610.409 328.36V374H592.909V331.3C592.909 328.407 591.789 326.167 589.549 324.58C587.309 322.9 584.416 322.06 580.869 322.06C577.789 322.06 574.896 322.433 572.189 323.18C569.576 323.833 567.243 324.627 565.189 325.56C563.229 326.493 561.736 327.287 560.709 327.94Z" fill="black"/>
</svg>
