<svg width="40" height="9" viewBox="0 0 40 9" fill="none" xmlns="http://www.w3.org/2000/svg">
<path d="M4.5 8C6.433 8 8 6.433 8 4.5C8 2.567 6.433 1 4.5 1C2.567 1 1 2.567 1 4.5C1 6.433 2.567 8 4.5 8Z" fill="white" stroke="black" stroke-width="2" stroke-miterlimit="10" stroke-linecap="round" stroke-linejoin="round"/>
<path d="M19.6666 8C21.5996 8 23.1666 6.433 23.1666 4.5C23.1666 2.567 21.5996 1 19.6666 1C17.7336 1 16.1666 2.567 16.1666 4.5C16.1666 6.433 17.7336 8 19.6666 8Z" fill="white" stroke="black" stroke-width="2" stroke-miterlimit="10" stroke-linecap="round" stroke-linejoin="round"/>
<path d="M34.8334 8C36.7664 8 38.3334 6.433 38.3334 4.5C38.3334 2.567 36.7664 1 34.8334 1C32.9004 1 31.3334 2.567 31.3334 4.5C31.3334 6.433 32.9004 8 34.8334 8Z" fill="white" stroke="black" stroke-width="2" stroke-miterlimit="10" stroke-linecap="round" stroke-linejoin="round"/>
</svg>
