<svg width="140" height="149" viewBox="0 0 140 149" fill="none" xmlns="http://www.w3.org/2000/svg">
<path d="M18.6576 19.241C17.6893 17.5483 15.532 16.9611 13.8393 17.9295C12.1466 18.8979 11.5594 21.0551 12.5278 22.7478C12.683 23.0192 12.8736 23.2687 13.0945 23.4898L24.6269 38.5896L27.3152 41.9774L19.4246 31.646C18.4563 29.9533 16.299 29.3661 14.6063 30.3345C12.9136 31.3029 12.3264 33.4601 13.2948 35.1528C13.45 35.4242 13.6406 35.6737 13.8615 35.8949L21.7521 46.2261L28.0228 54.1251C33.4898 60.3982 42.5375 60.0557 48.8091 54.5901C52.4136 51.4217 54.7317 47.0419 55.3245 42.2796C55.7103 38.047 56.1315 26.9786 56.1315 26.9786C55.9489 24.3778 52.9962 22.4552 52.6157 23.7984L47.7218 33.5559L44.3561 29.3335L30.891 12.1249C29.9227 10.4322 27.7654 9.845 26.0727 10.8134C24.38 11.7818 23.7928 13.939 24.7612 15.6317C24.9164 15.9031 25.107 16.1526 25.3279 16.3737L29.5767 21.9368L36.0001 30.4168L22.5811 12.7367C21.6128 11.044 19.4555 10.4568 17.7628 11.4252C16.0701 12.3936 15.4829 14.5508 16.4512 16.2435C16.6064 16.5149 16.797 16.7644 17.0179 16.9856L31.6895 36.0001" fill="#FCEA2B"/>
<path d="M18.6576 19.241C17.6893 17.5483 15.532 16.9611 13.8393 17.9295C12.1466 18.8979 11.5594 21.0551 12.5278 22.7478C12.683 23.0192 12.8736 23.2687 13.0945 23.4898L24.6269 38.5896L27.3152 41.9774L19.4246 31.646C18.4563 29.9533 16.299 29.3661 14.6063 30.3345C12.9136 31.3029 12.3264 33.4601 13.2948 35.1528C13.45 35.4242 13.6406 35.6737 13.8615 35.8949L21.7521 46.2261L28.0228 54.1251C33.4898 60.3982 42.5375 60.0557 48.8091 54.5901C52.4136 51.4217 54.7317 47.0419 55.3245 42.2796C55.7103 38.047 56.1315 26.9786 56.1315 26.9786C55.9489 24.3778 52.9962 22.4552 52.6157 23.7984L47.7218 33.5559L44.3561 29.3335L30.891 12.1249C29.9227 10.4322 27.7654 9.845 26.0727 10.8134C24.38 11.7818 23.7928 13.939 24.7612 15.6317C24.9164 15.9031 25.107 16.1526 25.3279 16.3737L29.5767 21.9368L36.0001 30.4168L22.5811 12.7367C21.6128 11.044 19.4555 10.4568 17.7628 11.4252C16.0701 12.3936 15.4829 14.5508 16.4512 16.2435C16.6064 16.5149 16.797 16.7644 17.0179 16.9856L31.6895 36.0001" stroke="black" stroke-width="2" stroke-linecap="round" stroke-linejoin="round"/>
<path d="M11.6726 42.8721C11.6726 45.4384 13.4196 47.5149 15.5785 47.5149" stroke="black" stroke-width="2" stroke-miterlimit="10" stroke-linecap="round" stroke-linejoin="round"/>
<path d="M7.0614 42.4365C7.0614 48.0324 10.8708 52.5606 15.5785 52.5606" stroke="black" stroke-width="2" stroke-miterlimit="10" stroke-linecap="round" stroke-linejoin="round"/>
<path d="M45.2619 21.2375C45.2619 18.6712 43.5149 16.5947 41.356 16.5947" stroke="black" stroke-width="2" stroke-miterlimit="10" stroke-linecap="round" stroke-linejoin="round"/>
<path d="M49.8731 21.6729C49.8731 16.077 46.0637 11.5488 41.356 11.5488" stroke="black" stroke-width="2" stroke-miterlimit="10" stroke-linecap="round" stroke-linejoin="round"/>
<path d="M127.5 51C127.5 44.0964 121.904 38.5 115 38.5C110.247 38.5 106.114 41.1536 104 45.0598C101.886 41.1536 97.7533 38.5 93 38.5C86.0964 38.5 80.5 44.0964 80.5 51C80.5 53.9699 81.5403 56.6942 83.2703 58.8387L83.266 58.8421L104 84.5397L124.734 58.8422L124.73 58.8388C126.46 56.6942 127.5 53.9699 127.5 51Z" fill="#FFA7C0"/>
<path d="M76 48C76 48 76 39 84 36" stroke="black" stroke-width="2" stroke-miterlimit="10" stroke-linecap="round" stroke-linejoin="round"/>
<path d="M72 45C72 45 72 36 80 33" stroke="black" stroke-width="2" stroke-miterlimit="10" stroke-linecap="round" stroke-linejoin="round"/>
<path d="M132 48C132 48 132 39 124 36" stroke="black" stroke-width="2" stroke-miterlimit="10" stroke-linecap="round" stroke-linejoin="round"/>
<path d="M136 45C136 45 136 36 128 33" stroke="black" stroke-width="2" stroke-miterlimit="10" stroke-linecap="round" stroke-linejoin="round"/>
<path d="M127.5 51C127.5 44.0964 121.904 38.5 115 38.5C110.247 38.5 106.114 41.1536 104 45.0598C101.886 41.1536 97.7533 38.5 93 38.5C86.0964 38.5 80.5 44.0964 80.5 51C80.5 53.9699 81.5403 56.6942 83.2703 58.8387L83.266 58.8421L104 84.5397L124.734 58.8422L124.73 58.8388C126.46 56.6942 127.5 53.9699 127.5 51Z" stroke="black" stroke-width="2" stroke-miterlimit="10" stroke-linejoin="round"/>
<path d="M30 98V112H33V115H36V122H42V128H47H48V122H64V128H70V122H76V115H79V112H82V97H76V101V102H69V97H65V91H59V97H52V91H46V97H42V102H36V97H30V98Z" fill="#8967AA"/>
<path d="M42 128H36V134H42V128Z" fill="#8967AA"/>
<path d="M76 128H70V134H76V128Z" fill="#8967AA"/>
<path d="M48.775 108H45.175V114H48.775V108Z" fill="black" stroke="black" stroke-width="2" stroke-linecap="round" stroke-linejoin="round"/>
<path d="M42 122H36V116" stroke="black" stroke-width="2" stroke-linecap="round" stroke-linejoin="round"/>
<path d="M42.583 102V97H46" stroke="black" stroke-width="2" stroke-linecap="round" stroke-linejoin="round"/>
<path d="M68.708 102V97H65.292" stroke="black" stroke-width="2" stroke-linecap="round" stroke-linejoin="round"/>
<path d="M33 112H30V97H36V112" stroke="black" stroke-width="2" stroke-linecap="round" stroke-linejoin="round"/>
<path d="M76 112V97H82V112H79" stroke="black" stroke-width="2" stroke-linecap="round" stroke-linejoin="round"/>
<path d="M46 97V91H52V97" stroke="black" stroke-width="2" stroke-linecap="round" stroke-linejoin="round"/>
<path d="M59 97V91H65V97" stroke="black" stroke-width="2" stroke-linecap="round" stroke-linejoin="round"/>
<path d="M36 112H39V115H33V112" stroke="black" stroke-width="2" stroke-linecap="round" stroke-linejoin="round"/>
<path d="M79 112V115H73V112H76" stroke="black" stroke-width="2" stroke-linecap="round" stroke-linejoin="round"/>
<path d="M42 128H36V134H42V128Z" stroke="black" stroke-width="2" stroke-linecap="round" stroke-linejoin="round"/>
<path d="M76 128H70V134H76V128Z" stroke="black" stroke-width="2" stroke-linecap="round" stroke-linejoin="round"/>
<path d="M48 122V128H42V122" stroke="black" stroke-width="2" stroke-linecap="round" stroke-linejoin="round"/>
<path d="M70 122H76V116" stroke="black" stroke-width="2" stroke-linecap="round" stroke-linejoin="round"/>
<path d="M64 122V128H70V122" stroke="black" stroke-width="2" stroke-linecap="round" stroke-linejoin="round"/>
<path d="M67.0251 108H63.425V114H67.0251V108Z" fill="black" stroke="black" stroke-width="2" stroke-linecap="round" stroke-linejoin="round"/>
<path d="M48 122H64" stroke="black" stroke-width="2" stroke-linecap="round" stroke-linejoin="round"/>
<path d="M52 97H59" stroke="black" stroke-width="2" stroke-linecap="round" stroke-linejoin="round"/>
<path d="M36 102H42" stroke="black" stroke-width="2" stroke-linecap="round" stroke-linejoin="round"/>
<path d="M69 102H76" stroke="black" stroke-width="2" stroke-linecap="round" stroke-linejoin="round"/>
</svg>
