<svg width="1235" height="417" viewBox="0 0 1235 417" fill="none" xmlns="http://www.w3.org/2000/svg">
<path d="M392.571 1.42871V37.1335C200.417 37.1335 36.7784 200.423 36.7784 392.578H1.4502C1.4502 176.508 176.523 1.43569 392.592 1.43569L392.571 1.42871Z" fill="#EA5A47"/>
<path d="M392.571 37.127V72.8247C222.449 72.8247 72.8248 222.449 72.8248 392.571H36.7227C36.7227 200.416 200.43 37.127 392.585 37.127H392.571Z" fill="#F4AA41"/>
<path d="M392.571 72.8242V108.529C242.598 108.529 108.523 242.744 108.523 392.577H72.8179C72.8179 222.455 222.442 72.8312 392.564 72.8312L392.571 72.8242Z" fill="#FCEA2B"/>
<path d="M392.571 108.522V144.227C260.935 144.227 144.29 261.57 144.29 392.578L108.516 392.577C108.516 242.814 242.591 108.529 392.564 108.529L392.571 108.522Z" fill="#B1CC33"/>
<path d="M392.571 144.22V179.917C278.645 179.917 179.918 279.063 179.918 392.57H144.29C144.29 261.632 260.935 144.22 392.571 144.22Z" fill="#92D3F5"/>
<path d="M392.571 179.918V215.623C294.82 215.623 215.616 294.827 215.616 392.578H179.911C179.911 279.07 278.638 179.925 392.564 179.925L392.571 179.918Z" fill="#B399C8"/>
<path d="M392.571 1.42871V37.1335C200.416 37.1335 36.7085 200.423 36.7085 392.578H1.4082C1.4082 176.508 176.481 1.43569 392.55 1.43569L392.571 1.42871Z" stroke="black" stroke-width="2" stroke-miterlimit="10" stroke-linecap="round" stroke-linejoin="round"/>
<path d="M392.571 37.127V72.8247C222.449 72.8247 72.8248 222.449 72.8248 392.571H36.7505C36.7505 200.416 200.389 37.127 392.543 37.127H392.571Z" stroke="black" stroke-width="2" stroke-miterlimit="10" stroke-linecap="round" stroke-linejoin="round"/>
<path d="M392.571 72.8242V108.529C242.598 108.529 108.522 242.744 108.522 392.577H72.8176C72.8176 222.455 222.441 72.8312 392.564 72.8312L392.571 72.8242Z" stroke="black" stroke-width="2" stroke-miterlimit="10" stroke-linecap="round" stroke-linejoin="round"/>
<path d="M392.571 108.522V144.227C260.935 144.227 144.29 261.57 144.29 392.578H108.515C108.515 242.814 242.591 108.529 392.564 108.529L392.571 108.522Z" stroke="black" stroke-width="2" stroke-miterlimit="10" stroke-linecap="round" stroke-linejoin="round"/>
<path d="M392.571 144.22V179.917C278.645 179.917 179.918 279.063 179.918 392.57H144.29C144.29 261.632 260.935 144.22 392.571 144.22Z" stroke="black" stroke-width="2" stroke-miterlimit="10" stroke-linecap="round" stroke-linejoin="round"/>
<path d="M392.571 179.918V215.623C294.82 215.623 215.616 294.827 215.616 392.578H179.911C179.911 279.07 278.638 179.925 392.564 179.925L392.571 179.918Z" stroke="black" stroke-width="2" stroke-miterlimit="10" stroke-linecap="round" stroke-linejoin="round"/>
<path d="M475.64 8H496.22V106H475.64V8ZM531.08 8H554.88L514.28 53.92L556.98 106H532.62L490.34 54.48L531.08 8Z" fill="black"/>
<path d="M559.63 73.8C559.63 67.08 561.17 61.2 564.25 56.16C567.424 51.12 571.67 47.2 576.99 44.4C582.404 41.6 588.517 40.2 595.33 40.2C602.144 40.2 608.21 41.6 613.53 44.4C618.944 47.2 623.19 51.12 626.27 56.16C629.444 61.2 631.03 67.08 631.03 73.8C631.03 80.4267 629.444 86.3067 626.27 91.44C623.19 96.48 618.944 100.4 613.53 103.2C608.21 106 602.144 107.4 595.33 107.4C588.517 107.4 582.404 106 576.99 103.2C571.67 100.4 567.424 96.48 564.25 91.44C561.17 86.3067 559.63 80.4267 559.63 73.8ZM578.11 73.8C578.11 77.44 578.857 80.66 580.35 83.46C581.937 86.1667 584.037 88.3133 586.65 89.9C589.264 91.3933 592.157 92.14 595.33 92.14C598.504 92.14 601.397 91.3933 604.01 89.9C606.624 88.3133 608.677 86.1667 610.17 83.46C611.757 80.66 612.55 77.44 612.55 73.8C612.55 70.16 611.757 66.94 610.17 64.14C608.677 61.34 606.624 59.1933 604.01 57.7C601.397 56.2067 598.504 55.46 595.33 55.46C592.157 55.46 589.264 56.2067 586.65 57.7C584.037 59.1933 581.937 61.34 580.35 64.14C578.857 66.94 578.11 70.16 578.11 73.8Z" fill="black"/>
<path d="M708.194 106L698.954 59.66L708.194 36.7L726.814 106H708.194ZM678.234 90.32L708.194 36.7L709.594 63.3L682.434 110.34L678.234 90.32ZM682.434 110.34L655.694 63.3L657.094 36.7L686.634 90.32L682.434 110.34ZM638.474 106L657.094 36.7L666.334 59.66L657.094 106H638.474Z" fill="black"/>
<path d="M751.402 86.82C751.402 88.5933 751.868 90.0867 752.802 91.3C753.735 92.42 754.995 93.3067 756.582 93.96C758.262 94.52 760.082 94.8 762.042 94.8C764.935 94.8 767.595 94.3333 770.022 93.4C772.448 92.4667 774.362 90.9267 775.762 88.78C777.162 86.6333 777.862 83.7867 777.862 80.24L780.102 87.8C780.102 91.9067 779.028 95.4533 776.882 98.44C774.735 101.333 771.842 103.573 768.202 105.16C764.655 106.653 760.642 107.4 756.162 107.4C751.775 107.4 747.855 106.653 744.402 105.16C740.948 103.667 738.195 101.473 736.142 98.58C734.182 95.5933 733.202 91.9533 733.202 87.66C733.202 83.2733 734.322 79.54 736.562 76.46C738.895 73.2867 742.115 70.86 746.222 69.18C750.422 67.5 755.322 66.66 760.922 66.66C764.375 66.66 767.595 67.08 770.582 67.92C773.568 68.76 776.088 69.74 778.142 70.86C780.195 71.98 781.642 73.0533 782.482 74.08V82.9C779.868 80.94 777.162 79.4933 774.362 78.56C771.562 77.6267 768.248 77.16 764.422 77.16C761.622 77.16 759.242 77.58 757.282 78.42C755.322 79.26 753.828 80.38 752.802 81.78C751.868 83.18 751.402 84.86 751.402 86.82ZM745.662 59.94L739.082 47.48C742.348 45.7067 746.362 44.0267 751.122 42.44C755.882 40.76 761.155 39.92 766.942 39.92C772.542 39.92 777.442 40.7133 781.642 42.3C785.935 43.8867 789.295 46.22 791.722 49.3C794.148 52.2867 795.362 55.9733 795.362 60.36V106H777.862V63.3C777.862 60.4067 776.742 58.1667 774.502 56.58C772.262 54.9 769.368 54.06 765.822 54.06C762.742 54.06 759.848 54.4333 757.142 55.18C754.528 55.8333 752.195 56.6267 750.142 57.56C748.182 58.4933 746.688 59.2867 745.662 59.94Z" fill="black"/>
<path d="M820.893 79.12V64.98H871.573V79.12H820.893ZM862.753 41.6H880.253V106H862.753V41.6ZM814.313 41.6H831.813V106H814.313V41.6Z" fill="black"/>
<path d="M939.142 65.12L922.622 101.8L904.702 98.86L939.142 36.7L973.722 98.86L955.662 101.8L939.142 65.12ZM964.202 106H914.782V118.6H896.862V91.3H981.422V118.6H964.202V106Z" fill="black"/>
<path d="M1011.73 86.82C1011.73 88.5933 1012.19 90.0867 1013.13 91.3C1014.06 92.42 1015.32 93.3067 1016.91 93.96C1018.59 94.52 1020.41 94.8 1022.37 94.8C1025.26 94.8 1027.92 94.3333 1030.35 93.4C1032.77 92.4667 1034.69 90.9267 1036.09 88.78C1037.49 86.6333 1038.19 83.7867 1038.19 80.24L1040.43 87.8C1040.43 91.9067 1039.35 95.4533 1037.21 98.44C1035.06 101.333 1032.17 103.573 1028.53 105.16C1024.98 106.653 1020.97 107.4 1016.49 107.4C1012.1 107.4 1008.18 106.653 1004.73 105.16C1001.27 103.667 998.518 101.473 996.465 98.58C994.505 95.5933 993.525 91.9533 993.525 87.66C993.525 83.2733 994.645 79.54 996.885 76.46C999.219 73.2867 1002.44 70.86 1006.55 69.18C1010.75 67.5 1015.65 66.66 1021.25 66.66C1024.7 66.66 1027.92 67.08 1030.91 67.92C1033.89 68.76 1036.41 69.74 1038.47 70.86C1040.52 71.98 1041.97 73.0533 1042.81 74.08V82.9C1040.19 80.94 1037.49 79.4933 1034.69 78.56C1031.89 77.6267 1028.57 77.16 1024.75 77.16C1021.95 77.16 1019.57 77.58 1017.61 78.42C1015.65 79.26 1014.15 80.38 1013.13 81.78C1012.19 83.18 1011.73 84.86 1011.73 86.82ZM1005.99 59.94L999.405 47.48C1002.67 45.7067 1006.69 44.0267 1011.45 42.44C1016.21 40.76 1021.48 39.92 1027.27 39.92C1032.87 39.92 1037.77 40.7133 1041.97 42.3C1046.26 43.8867 1049.62 46.22 1052.05 49.3C1054.47 52.2867 1055.69 55.9733 1055.69 60.36V106H1038.19V63.3C1038.19 60.4067 1037.07 58.1667 1034.83 56.58C1032.59 54.9 1029.69 54.06 1026.15 54.06C1023.07 54.06 1020.17 54.4333 1017.47 55.18C1014.85 55.8333 1012.52 56.6267 1010.47 57.56C1008.51 58.4933 1007.01 59.2867 1005.99 59.94Z" fill="black"/>
<path d="M486 212.4H507.56C512.04 212.4 516.053 212.867 519.6 213.8C523.147 214.733 525.947 216.367 528 218.7C530.053 221.033 531.08 224.3 531.08 228.5C531.08 233.353 529.447 237.507 526.18 240.96C523.007 244.32 517.733 246 510.36 246H486V233.82H504.62C507.887 233.82 510.22 233.073 511.62 231.58C513.113 230.087 513.86 228.407 513.86 226.54C513.86 225.513 513.673 224.627 513.3 223.88C512.927 223.04 512.367 222.293 511.62 221.64C510.967 220.893 510.033 220.38 508.82 220.1C507.7 219.727 506.3 219.54 504.62 219.54H486V212.4ZM486 215.2V207.36H503.22C504.433 207.36 505.507 207.22 506.44 206.94C507.467 206.567 508.307 206.053 508.96 205.4C509.613 204.747 510.127 204 510.5 203.16C510.873 202.32 511.06 201.433 511.06 200.5C511.06 198.633 510.36 197.047 508.96 195.74C507.56 194.433 505.647 193.78 503.22 193.78H486V181.6H506.16C510.173 181.6 513.813 182.207 517.08 183.42C520.44 184.54 523.147 186.407 525.2 189.02C527.253 191.54 528.28 194.9 528.28 199.1C528.28 202.74 527.253 205.773 525.2 208.2C523.147 210.533 520.44 212.307 517.08 213.52C513.813 214.64 510.173 215.2 506.16 215.2H486ZM475.5 181.6H493V246H475.5V181.6Z" fill="black"/>
<path d="M541.993 213.8C541.993 207.08 543.533 201.2 546.613 196.16C549.787 191.12 554.033 187.2 559.353 184.4C564.767 181.6 570.88 180.2 577.693 180.2C584.507 180.2 590.573 181.6 595.893 184.4C601.307 187.2 605.553 191.12 608.633 196.16C611.807 201.2 613.393 207.08 613.393 213.8C613.393 220.427 611.807 226.307 608.633 231.44C605.553 236.48 601.307 240.4 595.893 243.2C590.573 246 584.507 247.4 577.693 247.4C570.88 247.4 564.767 246 559.353 243.2C554.033 240.4 549.787 236.48 546.613 231.44C543.533 226.307 541.993 220.427 541.993 213.8ZM560.473 213.8C560.473 217.44 561.22 220.66 562.713 223.46C564.3 226.167 566.4 228.313 569.013 229.9C571.627 231.393 574.52 232.14 577.693 232.14C580.867 232.14 583.76 231.393 586.373 229.9C588.987 228.313 591.04 226.167 592.533 223.46C594.12 220.66 594.913 217.44 594.913 213.8C594.913 210.16 594.12 206.94 592.533 204.14C591.04 201.34 588.987 199.193 586.373 197.7C583.76 196.207 580.867 195.46 577.693 195.46C574.52 195.46 571.627 196.207 569.013 197.7C566.4 199.193 564.3 201.34 562.713 204.14C561.22 206.94 560.473 210.16 560.473 213.8Z" fill="black"/>
<path d="M693.358 181.6V246H675.858V198.12H649.258V223.6C649.258 228.64 648.371 232.84 646.598 236.2C644.824 239.467 641.884 241.94 637.778 243.62C633.764 245.207 628.351 246 621.538 246V229.76C624.338 229.76 626.718 229.153 628.678 227.94C630.731 226.633 631.758 223.973 631.758 219.96V181.6H693.358Z" fill="black"/>
<path d="M711.213 213.8C711.213 207.08 712.753 201.2 715.833 196.16C719.006 191.12 723.253 187.2 728.573 184.4C733.986 181.6 740.1 180.2 746.913 180.2C753.726 180.2 759.793 181.6 765.113 184.4C770.526 187.2 774.773 191.12 777.853 196.16C781.026 201.2 782.613 207.08 782.613 213.8C782.613 220.427 781.026 226.307 777.853 231.44C774.773 236.48 770.526 240.4 765.113 243.2C759.793 246 753.726 247.4 746.913 247.4C740.1 247.4 733.986 246 728.573 243.2C723.253 240.4 719.006 236.48 715.833 231.44C712.753 226.307 711.213 220.427 711.213 213.8ZM729.693 213.8C729.693 217.44 730.44 220.66 731.933 223.46C733.52 226.167 735.62 228.313 738.233 229.9C740.846 231.393 743.74 232.14 746.913 232.14C750.086 232.14 752.98 231.393 755.593 229.9C758.206 228.313 760.26 226.167 761.753 223.46C763.34 220.66 764.133 217.44 764.133 213.8C764.133 210.16 763.34 206.94 761.753 204.14C760.26 201.34 758.206 199.193 755.593 197.7C752.98 196.207 750.086 195.46 746.913 195.46C743.74 195.46 740.846 196.207 738.233 197.7C735.62 199.193 733.52 201.34 731.933 204.14C730.44 206.94 729.693 210.16 729.693 213.8Z" fill="black"/>
<path d="M804.897 219.12V204.98H855.577V219.12H804.897ZM846.757 181.6H864.257V246H846.757V181.6ZM798.317 181.6H815.817V246H798.317V181.6Z" fill="black"/>
<path d="M875.966 181.6H918.806V196.86H875.966V181.6ZM888.706 184.4H906.206V246H888.706V184.4Z" fill="black"/>
<path d="M934.592 217.86V206.66H973.092C972.718 203.86 971.972 201.433 970.852 199.38C969.732 197.327 968.192 195.74 966.232 194.62C964.272 193.5 961.798 192.94 958.812 192.94C955.732 192.94 952.978 193.64 950.552 195.04C948.125 196.347 946.212 198.307 944.812 200.92C943.412 203.533 942.712 206.613 942.712 210.16L942.432 213.8C942.432 218.373 943.132 222.153 944.532 225.14C946.025 228.033 948.032 230.18 950.552 231.58C953.072 232.887 955.918 233.54 959.092 233.54C961.892 233.54 964.365 233.167 966.512 232.42C968.658 231.673 970.572 230.6 972.252 229.2C973.932 227.8 975.332 226.167 976.452 224.3L992.272 229.2C990.125 232.84 987.605 236.06 984.712 238.86C981.818 241.567 978.272 243.667 974.072 245.16C969.965 246.653 964.925 247.4 958.952 247.4C951.765 247.4 945.558 245.953 940.332 243.06C935.105 240.167 931.092 236.2 928.292 231.16C925.585 226.027 924.232 220.24 924.232 213.8C924.232 212.587 924.278 211.42 924.372 210.3C924.465 209.18 924.605 208.06 924.792 206.94C925.725 201.62 927.638 196.953 930.532 192.94C933.425 188.927 937.298 185.8 942.152 183.56C947.005 181.32 952.652 180.2 959.092 180.2C966.185 180.2 972.205 181.553 977.152 184.26C982.192 186.873 986.018 190.607 988.632 195.46C991.245 200.313 992.552 206.147 992.552 212.96C992.552 213.52 992.552 214.22 992.552 215.06C992.552 215.9 992.458 216.833 992.272 217.86H934.592Z" fill="black"/>
<path d="M1026.38 276.8H1008.18V181.6H1026.38V276.8ZM1079.3 213.8C1079.3 221.08 1077.85 227.287 1074.96 232.42C1072.07 237.553 1068.24 241.427 1063.48 244.04C1058.81 246.653 1053.77 247.96 1048.36 247.96C1042.85 247.96 1038.05 246.56 1033.94 243.76C1029.93 240.96 1026.8 236.993 1024.56 231.86C1022.41 226.727 1021.34 220.707 1021.34 213.8C1021.34 206.8 1022.41 200.78 1024.56 195.74C1026.8 190.607 1029.93 186.64 1033.94 183.84C1038.05 181.04 1042.85 179.64 1048.36 179.64C1053.77 179.64 1058.81 180.947 1063.48 183.56C1068.24 186.173 1072.07 190.047 1074.96 195.18C1077.85 200.22 1079.3 206.427 1079.3 213.8ZM1060.54 213.8C1060.54 209.973 1059.75 206.707 1058.16 204C1056.57 201.293 1054.43 199.24 1051.72 197.84C1049.11 196.44 1046.21 195.74 1043.04 195.74C1040.33 195.74 1037.67 196.44 1035.06 197.84C1032.54 199.147 1030.44 201.153 1028.76 203.86C1027.17 206.567 1026.38 209.88 1026.38 213.8C1026.38 217.72 1027.17 221.033 1028.76 223.74C1030.44 226.447 1032.54 228.5 1035.06 229.9C1037.67 231.207 1040.33 231.86 1043.04 231.86C1046.21 231.86 1049.11 231.16 1051.72 229.76C1054.43 228.36 1056.57 226.307 1058.16 223.6C1059.75 220.893 1060.54 217.627 1060.54 213.8Z" fill="black"/>
<path d="M1090.58 213.8C1090.58 207.08 1092.12 201.2 1095.2 196.16C1098.37 191.12 1102.62 187.2 1107.94 184.4C1113.35 181.6 1119.47 180.2 1126.28 180.2C1133.09 180.2 1139.16 181.6 1144.48 184.4C1149.89 187.2 1154.14 191.12 1157.22 196.16C1160.39 201.2 1161.98 207.08 1161.98 213.8C1161.98 220.427 1160.39 226.307 1157.22 231.44C1154.14 236.48 1149.89 240.4 1144.48 243.2C1139.16 246 1133.09 247.4 1126.28 247.4C1119.47 247.4 1113.35 246 1107.94 243.2C1102.62 240.4 1098.37 236.48 1095.2 231.44C1092.12 226.307 1090.58 220.427 1090.58 213.8ZM1109.06 213.8C1109.06 217.44 1109.81 220.66 1111.3 223.46C1112.89 226.167 1114.99 228.313 1117.6 229.9C1120.21 231.393 1123.11 232.14 1126.28 232.14C1129.45 232.14 1132.35 231.393 1134.96 229.9C1137.57 228.313 1139.63 226.167 1141.12 223.46C1142.71 220.66 1143.5 217.44 1143.5 213.8C1143.5 210.16 1142.71 206.94 1141.12 204.14C1139.63 201.34 1137.57 199.193 1134.96 197.7C1132.35 196.207 1129.45 195.46 1126.28 195.46C1123.11 195.46 1120.21 196.207 1117.6 197.7C1114.99 199.193 1112.89 201.34 1111.3 204.14C1109.81 206.94 1109.06 210.16 1109.06 213.8Z" fill="black"/>
<path d="M1189.72 212.4H1211.28C1215.76 212.4 1219.78 212.867 1223.32 213.8C1226.87 214.733 1229.67 216.367 1231.72 218.7C1233.78 221.033 1234.8 224.3 1234.8 228.5C1234.8 233.353 1233.17 237.507 1229.9 240.96C1226.73 244.32 1221.46 246 1214.08 246H1189.72V233.82H1208.34C1211.61 233.82 1213.94 233.073 1215.34 231.58C1216.84 230.087 1217.58 228.407 1217.58 226.54C1217.58 225.513 1217.4 224.627 1217.02 223.88C1216.65 223.04 1216.09 222.293 1215.34 221.64C1214.69 220.893 1213.76 220.38 1212.54 220.1C1211.42 219.727 1210.02 219.54 1208.34 219.54H1189.72V212.4ZM1189.72 215.2V207.36H1206.94C1208.16 207.36 1209.23 207.22 1210.16 206.94C1211.19 206.567 1212.03 206.053 1212.68 205.4C1213.34 204.747 1213.85 204 1214.22 203.16C1214.6 202.32 1214.78 201.433 1214.78 200.5C1214.78 198.633 1214.08 197.047 1212.68 195.74C1211.28 194.433 1209.37 193.78 1206.94 193.78H1189.72V181.6H1209.88C1213.9 181.6 1217.54 182.207 1220.8 183.42C1224.16 184.54 1226.87 186.407 1228.92 189.02C1230.98 191.54 1232 194.9 1232 199.1C1232 202.74 1230.98 205.773 1228.92 208.2C1226.87 210.533 1224.16 212.307 1220.8 213.52C1217.54 214.64 1213.9 215.2 1209.88 215.2H1189.72ZM1179.22 181.6H1196.72V246H1179.22V181.6Z" fill="black"/>
<path d="M491.74 337C491.74 343.44 493.187 349.087 496.08 353.94C499.067 358.7 502.94 362.387 507.7 365C512.46 367.52 517.64 368.78 523.24 368.78C527.907 368.78 532.06 368.173 535.7 366.96C539.34 365.747 542.607 364.113 545.5 362.06C548.487 360.007 551.053 357.767 553.2 355.34V377.88C549.187 381.053 544.8 383.527 540.04 385.3C535.373 387.073 529.447 387.96 522.26 387.96C514.793 387.96 507.84 386.747 501.4 384.32C495.053 381.893 489.5 378.393 484.74 373.82C480.073 369.247 476.433 363.88 473.82 357.72C471.3 351.467 470.04 344.56 470.04 337C470.04 329.44 471.3 322.58 473.82 316.42C476.433 310.167 480.073 304.753 484.74 300.18C489.5 295.607 495.053 292.107 501.4 289.68C507.84 287.253 514.793 286.04 522.26 286.04C529.447 286.04 535.373 286.927 540.04 288.7C544.8 290.473 549.187 292.947 553.2 296.12V318.66C551.053 316.233 548.487 313.993 545.5 311.94C542.607 309.887 539.34 308.253 535.7 307.04C532.06 305.827 527.907 305.22 523.24 305.22C517.64 305.22 512.46 306.527 507.7 309.14C502.94 311.66 499.067 315.3 496.08 320.06C493.187 324.82 491.74 330.467 491.74 337Z" fill="black"/>
<path d="M586.421 366.82C586.421 368.593 586.887 370.087 587.821 371.3C588.754 372.42 590.014 373.307 591.601 373.96C593.281 374.52 595.101 374.8 597.061 374.8C599.954 374.8 602.614 374.333 605.041 373.4C607.467 372.467 609.381 370.927 610.781 368.78C612.181 366.633 612.881 363.787 612.881 360.24L615.121 367.8C615.121 371.907 614.047 375.453 611.901 378.44C609.754 381.333 606.861 383.573 603.221 385.16C599.674 386.653 595.661 387.4 591.181 387.4C586.794 387.4 582.874 386.653 579.421 385.16C575.967 383.667 573.214 381.473 571.161 378.58C569.201 375.593 568.221 371.953 568.221 367.66C568.221 363.273 569.341 359.54 571.581 356.46C573.914 353.287 577.134 350.86 581.241 349.18C585.441 347.5 590.341 346.66 595.941 346.66C599.394 346.66 602.614 347.08 605.601 347.92C608.587 348.76 611.107 349.74 613.161 350.86C615.214 351.98 616.661 353.053 617.501 354.08V362.9C614.887 360.94 612.181 359.493 609.381 358.56C606.581 357.627 603.267 357.16 599.441 357.16C596.641 357.16 594.261 357.58 592.301 358.42C590.341 359.26 588.847 360.38 587.821 361.78C586.887 363.18 586.421 364.86 586.421 366.82ZM580.681 339.94L574.101 327.48C577.367 325.707 581.381 324.027 586.141 322.44C590.901 320.76 596.174 319.92 601.961 319.92C607.561 319.92 612.461 320.713 616.661 322.3C620.954 323.887 624.314 326.22 626.741 329.3C629.167 332.287 630.381 335.973 630.381 340.36V386H612.881V343.3C612.881 340.407 611.761 338.167 609.521 336.58C607.281 334.9 604.387 334.06 600.84 334.06C597.761 334.06 594.867 334.433 592.161 335.18C589.547 335.833 587.214 336.627 585.161 337.56C583.201 338.493 581.707 339.287 580.681 339.94Z" fill="black"/>
<path d="M688.532 321.6H708.552L684.752 352.82L709.952 386H689.932L675.372 365.56L661.092 386H640.372L665.852 352.82L641.772 321.6H662.492L675.372 340.22L688.532 321.6Z" fill="black"/>
<path d="M733.902 366.82C733.902 368.593 734.368 370.087 735.302 371.3C736.235 372.42 737.495 373.307 739.082 373.96C740.762 374.52 742.582 374.8 744.542 374.8C747.435 374.8 750.095 374.333 752.522 373.4C754.948 372.467 756.862 370.927 758.262 368.78C759.662 366.633 760.362 363.787 760.362 360.24L762.602 367.8C762.602 371.907 761.528 375.453 759.382 378.44C757.235 381.333 754.342 383.573 750.702 385.16C747.155 386.653 743.142 387.4 738.662 387.4C734.275 387.4 730.355 386.653 726.902 385.16C723.448 383.667 720.695 381.473 718.642 378.58C716.682 375.593 715.702 371.953 715.702 367.66C715.702 363.273 716.822 359.54 719.062 356.46C721.395 353.287 724.615 350.86 728.722 349.18C732.922 347.5 737.822 346.66 743.422 346.66C746.875 346.66 750.095 347.08 753.082 347.92C756.068 348.76 758.588 349.74 760.642 350.86C762.695 351.98 764.142 353.053 764.982 354.08V362.9C762.368 360.94 759.662 359.493 756.862 358.56C754.062 357.627 750.748 357.16 746.922 357.16C744.122 357.16 741.742 357.58 739.782 358.42C737.822 359.26 736.328 360.38 735.302 361.78C734.368 363.18 733.902 364.86 733.902 366.82ZM728.162 339.94L721.582 327.48C724.848 325.707 728.862 324.027 733.622 322.44C738.382 320.76 743.655 319.92 749.442 319.92C755.042 319.92 759.942 320.713 764.142 322.3C768.435 323.887 771.795 326.22 774.222 329.3C776.648 332.287 777.862 335.973 777.862 340.36V386H760.362V343.3C760.362 340.407 759.242 338.167 757.002 336.58C754.762 334.9 751.868 334.06 748.322 334.06C745.242 334.06 742.348 334.433 739.642 335.18C737.028 335.833 734.695 336.627 732.642 337.56C730.682 338.493 729.188 339.287 728.162 339.94Z" fill="black"/>
<path d="M814.593 416.8H796.393V321.6H814.593V416.8ZM867.513 353.8C867.513 361.08 866.066 367.287 863.173 372.42C860.28 377.553 856.453 381.427 851.693 384.04C847.027 386.653 841.986 387.96 836.573 387.96C831.066 387.96 826.26 386.56 822.153 383.76C818.14 380.96 815.013 376.993 812.773 371.86C810.626 366.727 809.553 360.707 809.553 353.8C809.553 346.8 810.626 340.78 812.773 335.74C815.013 330.607 818.14 326.64 822.153 323.84C826.26 321.04 831.066 319.64 836.573 319.64C841.986 319.64 847.027 320.947 851.693 323.56C856.453 326.173 860.28 330.047 863.173 335.18C866.066 340.22 867.513 346.427 867.513 353.8ZM848.753 353.8C848.753 349.973 847.96 346.707 846.373 344C844.787 341.293 842.64 339.24 839.933 337.84C837.32 336.44 834.426 335.74 831.253 335.74C828.546 335.74 825.886 336.44 823.273 337.84C820.753 339.147 818.653 341.153 816.973 343.86C815.386 346.567 814.593 349.88 814.593 353.8C814.593 357.72 815.386 361.033 816.973 363.74C818.653 366.447 820.753 368.5 823.273 369.9C825.886 371.207 828.546 371.86 831.253 371.86C834.426 371.86 837.32 371.16 839.933 369.76C842.64 368.36 844.787 366.307 846.373 363.6C847.96 360.893 848.753 357.627 848.753 353.8Z" fill="black"/>
<path d="M878.792 353.8C878.792 347.08 880.332 341.2 883.412 336.16C886.585 331.12 890.832 327.2 896.152 324.4C901.565 321.6 907.679 320.2 914.492 320.2C921.305 320.2 927.372 321.6 932.692 324.4C938.105 327.2 942.352 331.12 945.432 336.16C948.605 341.2 950.192 347.08 950.192 353.8C950.192 360.427 948.605 366.307 945.432 371.44C942.352 376.48 938.105 380.4 932.692 383.2C927.372 386 921.305 387.4 914.492 387.4C907.679 387.4 901.565 386 896.152 383.2C890.832 380.4 886.585 376.48 883.412 371.44C880.332 366.307 878.792 360.427 878.792 353.8ZM897.272 353.8C897.272 357.44 898.019 360.66 899.512 363.46C901.099 366.167 903.199 368.313 905.812 369.9C908.425 371.393 911.319 372.14 914.492 372.14C917.665 372.14 920.559 371.393 923.172 369.9C925.785 368.313 927.839 366.167 929.332 363.46C930.919 360.66 931.712 357.44 931.712 353.8C931.712 350.16 930.919 346.94 929.332 344.14C927.839 341.34 925.785 339.193 923.172 337.7C920.559 336.207 917.665 335.46 914.492 335.46C911.319 335.46 908.425 336.207 905.812 337.7C903.199 339.193 901.099 341.34 899.512 344.14C898.019 346.94 897.272 350.16 897.272 353.8Z" fill="black"/>
<path d="M977.936 352.4H999.496C1003.98 352.4 1007.99 352.867 1011.54 353.8C1015.08 354.733 1017.88 356.367 1019.94 358.7C1021.99 361.033 1023.02 364.3 1023.02 368.5C1023.02 373.353 1021.38 377.507 1018.12 380.96C1014.94 384.32 1009.67 386 1002.3 386H977.936V373.82H996.556C999.823 373.82 1002.16 373.073 1003.56 371.58C1005.05 370.087 1005.8 368.407 1005.8 366.54C1005.8 365.513 1005.61 364.627 1005.24 363.88C1004.86 363.04 1004.3 362.293 1003.56 361.64C1002.9 360.893 1001.97 360.38 1000.76 360.1C999.636 359.727 998.236 359.54 996.556 359.54H977.936V352.4ZM977.936 355.2V347.36H995.156C996.369 347.36 997.443 347.22 998.376 346.94C999.403 346.567 1000.24 346.053 1000.9 345.4C1001.55 344.747 1002.06 344 1002.44 343.16C1002.81 342.32 1003 341.433 1003 340.5C1003 338.633 1002.3 337.047 1000.9 335.74C999.496 334.433 997.583 333.78 995.156 333.78H977.936V321.6H998.096C1002.11 321.6 1005.75 322.207 1009.02 323.42C1012.38 324.54 1015.08 326.407 1017.14 329.02C1019.19 331.54 1020.22 334.9 1020.22 339.1C1020.22 342.74 1019.19 345.773 1017.14 348.2C1015.08 350.533 1012.38 352.307 1009.02 353.52C1005.75 354.64 1002.11 355.2 998.096 355.2H977.936ZM967.436 321.6H984.936V386H967.436V321.6Z" fill="black"/>
<path d="M1051.15 366.82C1051.15 368.593 1051.62 370.087 1052.55 371.3C1053.48 372.42 1054.74 373.307 1056.33 373.96C1058.01 374.52 1059.83 374.8 1061.79 374.8C1064.68 374.8 1067.34 374.333 1069.77 373.4C1072.2 372.467 1074.11 370.927 1075.51 368.78C1076.91 366.633 1077.61 363.787 1077.61 360.24L1079.85 367.8C1079.85 371.907 1078.78 375.453 1076.63 378.44C1074.48 381.333 1071.59 383.573 1067.95 385.16C1064.4 386.653 1060.39 387.4 1055.91 387.4C1051.52 387.4 1047.6 386.653 1044.15 385.16C1040.7 383.667 1037.94 381.473 1035.89 378.58C1033.93 375.593 1032.95 371.953 1032.95 367.66C1032.95 363.273 1034.07 359.54 1036.31 356.46C1038.64 353.287 1041.86 350.86 1045.97 349.18C1050.17 347.5 1055.07 346.66 1060.67 346.66C1064.12 346.66 1067.34 347.08 1070.33 347.92C1073.32 348.76 1075.84 349.74 1077.89 350.86C1079.94 351.98 1081.39 353.053 1082.23 354.08V362.9C1079.62 360.94 1076.91 359.493 1074.11 358.56C1071.31 357.627 1068 357.16 1064.17 357.16C1061.37 357.16 1058.99 357.58 1057.03 358.42C1055.07 359.26 1053.58 360.38 1052.55 361.78C1051.62 363.18 1051.15 364.86 1051.15 366.82ZM1045.41 339.94L1038.83 327.48C1042.1 325.707 1046.11 324.027 1050.87 322.44C1055.63 320.76 1060.9 319.92 1066.69 319.92C1072.29 319.92 1077.19 320.713 1081.39 322.3C1085.68 323.887 1089.04 326.22 1091.47 329.3C1093.9 332.287 1095.11 335.973 1095.11 340.36V386H1077.61V343.3C1077.61 340.407 1076.49 338.167 1074.25 336.58C1072.01 334.9 1069.12 334.06 1065.57 334.06C1062.49 334.06 1059.6 334.433 1056.89 335.18C1054.28 335.833 1051.94 336.627 1049.89 337.56C1047.93 338.493 1046.44 339.287 1045.41 339.94Z" fill="black"/>
</svg>
