<svg width="72" height="72" viewBox="0 0 72 72" fill="none" xmlns="http://www.w3.org/2000/svg">
<path d="M35.9705 6.03711L27.7689 22.6707L9.41699 25.3444L22.7021 38.2846L19.5738 56.5645L35.986 47.9283L52.4046 56.5523L49.2627 38.2747L62.5383 25.3247L44.1843 22.6646L35.9705 6.03711Z" fill="#FCEA2B"/>
<path d="M14.1636 41.46L4.85925 42.0371L6.47635 46.7335L14.1636 41.46Z" fill="#FCEA2B"/>
<path d="M57.8365 40.9795L67.1409 41.5566L65.5237 46.253L57.8365 40.9795Z" fill="#FCEA2B"/>
<path d="M22.0722 15.5925L18.6481 6.92188L14.6812 9.91108L22.0722 15.5925Z" fill="#FCEA2B"/>
<path d="M50.4003 16.0869L57.985 10.6669L54.1249 7.54102L50.4003 16.0869Z" fill="#FCEA2B"/>
<path d="M35.9198 56.9785L33.4363 65.9638H38.4033L35.9198 56.9785Z" fill="#FCEA2B"/>
<path d="M35.9248 6.03711L27.7233 22.6707L9.37134 25.3444L22.6564 38.2846L19.5282 56.5645L35.9403 47.9283L52.3589 56.5523L49.2171 38.2747L62.4926 25.3247L44.1387 22.6646L35.9248 6.03711Z" stroke="#FCEA2B" stroke-width="2" stroke-miterlimit="10" stroke-linecap="round" stroke-linejoin="round"/>
<path d="M35.9321 56.9785L33.4485 65.9638H38.4156L35.9321 56.9785Z" stroke="#FCEA2B" stroke-width="2" stroke-miterlimit="10" stroke-linecap="round" stroke-linejoin="round"/>
<path d="M57.8157 41.0791L65.5938 46.2177L67.1287 41.4938L57.8157 41.0791Z" stroke="#FCEA2B" stroke-width="2" stroke-miterlimit="10" stroke-linecap="round" stroke-linejoin="round"/>
<path d="M14.1759 41.46L4.87146 42.0371L6.48856 46.7335L14.1759 41.46Z" stroke="#FCEA2B" stroke-width="2" stroke-miterlimit="10" stroke-linecap="round" stroke-linejoin="round"/>
<path d="M50.4126 16.0869L57.9973 10.6669L54.1372 7.54102L50.4126 16.0869Z" stroke="#FCEA2B" stroke-width="2" stroke-miterlimit="10" stroke-linecap="round" stroke-linejoin="round"/>
<path d="M22.0844 15.5925L18.6603 6.92188L14.6935 9.91108L22.0844 15.5925Z" stroke="#FCEA2B" stroke-width="2" stroke-miterlimit="10" stroke-linecap="round" stroke-linejoin="round"/>
</svg>
