<svg width="1111" height="422" viewBox="0 0 1111 422" fill="none" xmlns="http://www.w3.org/2000/svg">
<path d="M5.6 13H26.18V111H5.6V13ZM61.04 13H84.84L44.24 58.92L86.94 111H62.58L20.3 59.48L61.04 13Z" fill="black"/>
<path d="M89.5902 78.8C89.5902 72.08 91.1302 66.2 94.2102 61.16C97.3835 56.12 101.63 52.2 106.95 49.4C112.363 46.6 118.477 45.2 125.29 45.2C132.103 45.2 138.17 46.6 143.49 49.4C148.903 52.2 153.15 56.12 156.23 61.16C159.403 66.2 160.99 72.08 160.99 78.8C160.99 85.4267 159.403 91.3067 156.23 96.44C153.15 101.48 148.903 105.4 143.49 108.2C138.17 111 132.103 112.4 125.29 112.4C118.477 112.4 112.363 111 106.95 108.2C101.63 105.4 97.3835 101.48 94.2102 96.44C91.1302 91.3067 89.5902 85.4267 89.5902 78.8ZM108.07 78.8C108.07 82.44 108.817 85.66 110.31 88.46C111.897 91.1667 113.997 93.3133 116.61 94.9C119.223 96.3933 122.117 97.14 125.29 97.14C128.463 97.14 131.357 96.3933 133.97 94.9C136.583 93.3133 138.637 91.1667 140.13 88.46C141.717 85.66 142.51 82.44 142.51 78.8C142.51 75.16 141.717 71.94 140.13 69.14C138.637 66.34 136.583 64.1933 133.97 62.7C131.357 61.2067 128.463 60.46 125.29 60.46C122.117 60.46 119.223 61.2067 116.61 62.7C113.997 64.1933 111.897 66.34 110.31 69.14C108.817 71.94 108.07 75.16 108.07 78.8Z" fill="black"/>
<path d="M238.154 111L228.914 64.66L238.154 41.7L256.774 111H238.154ZM208.194 95.32L238.154 41.7L239.554 68.3L212.394 115.34L208.194 95.32ZM212.394 115.34L185.654 68.3L187.054 41.7L216.594 95.32L212.394 115.34ZM168.434 111L187.054 41.7L196.294 64.66L187.054 111H168.434Z" fill="black"/>
<path d="M281.362 91.82C281.362 93.5933 281.828 95.0867 282.762 96.3C283.695 97.42 284.955 98.3067 286.542 98.96C288.222 99.52 290.042 99.8 292.002 99.8C294.895 99.8 297.555 99.3333 299.982 98.4C302.408 97.4667 304.322 95.9267 305.722 93.78C307.122 91.6333 307.822 88.7867 307.822 85.24L310.062 92.8C310.062 96.9067 308.988 100.453 306.842 103.44C304.695 106.333 301.802 108.573 298.162 110.16C294.615 111.653 290.602 112.4 286.122 112.4C281.735 112.4 277.815 111.653 274.362 110.16C270.908 108.667 268.155 106.473 266.102 103.58C264.142 100.593 263.162 96.9533 263.162 92.66C263.162 88.2733 264.282 84.54 266.522 81.46C268.855 78.2867 272.075 75.86 276.182 74.18C280.382 72.5 285.282 71.66 290.882 71.66C294.335 71.66 297.555 72.08 300.542 72.92C303.528 73.76 306.048 74.74 308.102 75.86C310.155 76.98 311.602 78.0533 312.442 79.08V87.9C309.828 85.94 307.122 84.4933 304.322 83.56C301.522 82.6267 298.208 82.16 294.382 82.16C291.582 82.16 289.202 82.58 287.242 83.42C285.282 84.26 283.788 85.38 282.762 86.78C281.828 88.18 281.362 89.86 281.362 91.82ZM275.622 64.94L269.042 52.48C272.308 50.7067 276.322 49.0267 281.082 47.44C285.842 45.76 291.115 44.92 296.902 44.92C302.502 44.92 307.402 45.7133 311.602 47.3C315.895 48.8867 319.255 51.22 321.682 54.3C324.108 57.2867 325.322 60.9733 325.322 65.36V111H307.822V68.3C307.822 65.4067 306.702 63.1667 304.462 61.58C302.222 59.9 299.328 59.06 295.782 59.06C292.702 59.06 289.808 59.4333 287.102 60.18C284.488 60.8333 282.155 61.6267 280.102 62.56C278.142 63.4933 276.648 64.2867 275.622 64.94Z" fill="black"/>
<path d="M350.853 84.12V69.98H401.533V84.12H350.853ZM392.713 46.6H410.213V111H392.713V46.6ZM344.273 46.6H361.773V111H344.273V46.6Z" fill="black"/>
<path d="M469.102 70.12L452.582 106.8L434.662 103.86L469.102 41.7L503.682 103.86L485.622 106.8L469.102 70.12ZM494.162 111H444.742V123.6H426.822V96.3H511.382V123.6H494.162V111Z" fill="black"/>
<path d="M541.685 91.82C541.685 93.5933 542.152 95.0867 543.085 96.3C544.018 97.42 545.278 98.3067 546.865 98.96C548.545 99.52 550.365 99.8 552.325 99.8C555.218 99.8 557.878 99.3333 560.305 98.4C562.732 97.4667 564.645 95.9267 566.045 93.78C567.445 91.6333 568.145 88.7867 568.145 85.24L570.385 92.8C570.385 96.9067 569.312 100.453 567.165 103.44C565.018 106.333 562.125 108.573 558.485 110.16C554.938 111.653 550.925 112.4 546.445 112.4C542.058 112.4 538.138 111.653 534.685 110.16C531.232 108.667 528.478 106.473 526.425 103.58C524.465 100.593 523.485 96.9533 523.485 92.66C523.485 88.2733 524.605 84.54 526.845 81.46C529.178 78.2867 532.398 75.86 536.505 74.18C540.705 72.5 545.605 71.66 551.205 71.66C554.658 71.66 557.878 72.08 560.865 72.92C563.852 73.76 566.372 74.74 568.425 75.86C570.478 76.98 571.925 78.0533 572.765 79.08V87.9C570.152 85.94 567.445 84.4933 564.645 83.56C561.845 82.6267 558.532 82.16 554.705 82.16C551.905 82.16 549.525 82.58 547.565 83.42C545.605 84.26 544.112 85.38 543.085 86.78C542.152 88.18 541.685 89.86 541.685 91.82ZM535.945 64.94L529.365 52.48C532.632 50.7067 536.645 49.0267 541.405 47.44C546.165 45.76 551.438 44.92 557.225 44.92C562.825 44.92 567.725 45.7133 571.925 47.3C576.218 48.8867 579.578 51.22 582.005 54.3C584.432 57.2867 585.645 60.9733 585.645 65.36V111H568.145V68.3C568.145 65.4067 567.025 63.1667 564.785 61.58C562.545 59.9 559.652 59.06 556.105 59.06C553.025 59.06 550.132 59.4333 547.425 60.18C544.812 60.8333 542.478 61.6267 540.425 62.56C538.465 63.4933 536.972 64.2867 535.945 64.94Z" fill="black"/>
<path d="M15.96 217.4H37.52C42 217.4 46.0133 217.867 49.56 218.8C53.1067 219.733 55.9067 221.367 57.96 223.7C60.0133 226.033 61.04 229.3 61.04 233.5C61.04 238.353 59.4067 242.507 56.14 245.96C52.9667 249.32 47.6933 251 40.32 251H15.96V238.82H34.58C37.8467 238.82 40.18 238.073 41.58 236.58C43.0733 235.087 43.82 233.407 43.82 231.54C43.82 230.513 43.6333 229.627 43.26 228.88C42.8867 228.04 42.3267 227.293 41.58 226.64C40.9267 225.893 39.9933 225.38 38.78 225.1C37.66 224.727 36.26 224.54 34.58 224.54H15.96V217.4ZM15.96 220.2V212.36H33.18C34.3933 212.36 35.4667 212.22 36.4 211.94C37.4267 211.567 38.2667 211.053 38.92 210.4C39.5733 209.747 40.0867 209 40.46 208.16C40.8333 207.32 41.02 206.433 41.02 205.5C41.02 203.633 40.32 202.047 38.92 200.74C37.52 199.433 35.6067 198.78 33.18 198.78H15.96V186.6H36.12C40.1333 186.6 43.7733 187.207 47.04 188.42C50.4 189.54 53.1067 191.407 55.16 194.02C57.2133 196.54 58.24 199.9 58.24 204.1C58.24 207.74 57.2133 210.773 55.16 213.2C53.1067 215.533 50.4 217.307 47.04 218.52C43.7733 219.64 40.1333 220.2 36.12 220.2H15.96ZM5.46 186.6H22.96V251H5.46V186.6Z" fill="black"/>
<path d="M71.9534 218.8C71.9534 212.08 73.4934 206.2 76.5734 201.16C79.7468 196.12 83.9934 192.2 89.3134 189.4C94.7268 186.6 100.84 185.2 107.653 185.2C114.467 185.2 120.533 186.6 125.853 189.4C131.267 192.2 135.513 196.12 138.593 201.16C141.767 206.2 143.353 212.08 143.353 218.8C143.353 225.427 141.767 231.307 138.593 236.44C135.513 241.48 131.267 245.4 125.853 248.2C120.533 251 114.467 252.4 107.653 252.4C100.84 252.4 94.7268 251 89.3134 248.2C83.9934 245.4 79.7468 241.48 76.5734 236.44C73.4934 231.307 71.9534 225.427 71.9534 218.8ZM90.4334 218.8C90.4334 222.44 91.1801 225.66 92.6734 228.46C94.2601 231.167 96.3601 233.313 98.9734 234.9C101.587 236.393 104.48 237.14 107.653 237.14C110.827 237.14 113.72 236.393 116.333 234.9C118.947 233.313 121 231.167 122.493 228.46C124.08 225.66 124.873 222.44 124.873 218.8C124.873 215.16 124.08 211.94 122.493 209.14C121 206.34 118.947 204.193 116.333 202.7C113.72 201.207 110.827 200.46 107.653 200.46C104.48 200.46 101.587 201.207 98.9734 202.7C96.3601 204.193 94.2601 206.34 92.6734 209.14C91.1801 211.94 90.4334 215.16 90.4334 218.8Z" fill="black"/>
<path d="M223.317 186.6V251H205.818V203.12H179.217V228.6C179.217 233.64 178.331 237.84 176.557 241.2C174.784 244.467 171.844 246.94 167.738 248.62C163.724 250.207 158.311 251 151.497 251V234.76C154.297 234.76 156.677 234.153 158.637 232.94C160.691 231.633 161.717 228.973 161.717 224.96V186.6H223.317Z" fill="black"/>
<path d="M241.173 218.8C241.173 212.08 242.713 206.2 245.793 201.16C248.966 196.12 253.213 192.2 258.533 189.4C263.946 186.6 270.06 185.2 276.873 185.2C283.686 185.2 289.753 186.6 295.073 189.4C300.486 192.2 304.733 196.12 307.813 201.16C310.986 206.2 312.573 212.08 312.573 218.8C312.573 225.427 310.986 231.307 307.813 236.44C304.733 241.48 300.486 245.4 295.073 248.2C289.753 251 283.686 252.4 276.873 252.4C270.06 252.4 263.946 251 258.533 248.2C253.213 245.4 248.966 241.48 245.793 236.44C242.713 231.307 241.173 225.427 241.173 218.8ZM259.653 218.8C259.653 222.44 260.4 225.66 261.893 228.46C263.48 231.167 265.58 233.313 268.193 234.9C270.806 236.393 273.7 237.14 276.873 237.14C280.046 237.14 282.94 236.393 285.553 234.9C288.166 233.313 290.22 231.167 291.713 228.46C293.3 225.66 294.093 222.44 294.093 218.8C294.093 215.16 293.3 211.94 291.713 209.14C290.22 206.34 288.166 204.193 285.553 202.7C282.94 201.207 280.046 200.46 276.873 200.46C273.7 200.46 270.806 201.207 268.193 202.7C265.58 204.193 263.48 206.34 261.893 209.14C260.4 211.94 259.653 215.16 259.653 218.8Z" fill="black"/>
<path d="M334.857 224.12V209.98H385.537V224.12H334.857ZM376.717 186.6H394.217V251H376.717V186.6ZM328.277 186.6H345.777V251H328.277V186.6Z" fill="black"/>
<path d="M405.926 186.6H448.766V201.86H405.926V186.6ZM418.666 189.4H436.166V251H418.666V189.4Z" fill="black"/>
<path d="M464.552 222.86V211.66H503.052C502.678 208.86 501.932 206.433 500.812 204.38C499.692 202.327 498.152 200.74 496.192 199.62C494.232 198.5 491.758 197.94 488.772 197.94C485.692 197.94 482.938 198.64 480.512 200.04C478.085 201.347 476.172 203.307 474.772 205.92C473.372 208.533 472.672 211.613 472.672 215.16L472.392 218.8C472.392 223.373 473.092 227.153 474.492 230.14C475.985 233.033 477.992 235.18 480.512 236.58C483.032 237.887 485.878 238.54 489.052 238.54C491.852 238.54 494.325 238.167 496.472 237.42C498.618 236.673 500.532 235.6 502.212 234.2C503.892 232.8 505.292 231.167 506.412 229.3L522.232 234.2C520.085 237.84 517.565 241.06 514.672 243.86C511.778 246.567 508.232 248.667 504.032 250.16C499.925 251.653 494.885 252.4 488.912 252.4C481.725 252.4 475.518 250.953 470.292 248.06C465.065 245.167 461.052 241.2 458.252 236.16C455.545 231.027 454.192 225.24 454.192 218.8C454.192 217.587 454.238 216.42 454.332 215.3C454.425 214.18 454.565 213.06 454.752 211.94C455.685 206.62 457.598 201.953 460.492 197.94C463.385 193.927 467.258 190.8 472.112 188.56C476.965 186.32 482.612 185.2 489.052 185.2C496.145 185.2 502.165 186.553 507.112 189.26C512.152 191.873 515.978 195.607 518.592 200.46C521.205 205.313 522.512 211.147 522.512 217.96C522.512 218.52 522.512 219.22 522.512 220.06C522.512 220.9 522.418 221.833 522.232 222.86H464.552Z" fill="black"/>
<path d="M556.341 281.8H538.141V186.6H556.341V281.8ZM609.261 218.8C609.261 226.08 607.815 232.287 604.921 237.42C602.028 242.553 598.201 246.427 593.441 249.04C588.775 251.653 583.735 252.96 578.321 252.96C572.815 252.96 568.008 251.56 563.901 248.76C559.888 245.96 556.761 241.993 554.521 236.86C552.375 231.727 551.301 225.707 551.301 218.8C551.301 211.8 552.375 205.78 554.521 200.74C556.761 195.607 559.888 191.64 563.901 188.84C568.008 186.04 572.815 184.64 578.321 184.64C583.735 184.64 588.775 185.947 593.441 188.56C598.201 191.173 602.028 195.047 604.921 200.18C607.815 205.22 609.261 211.427 609.261 218.8ZM590.501 218.8C590.501 214.973 589.708 211.707 588.121 209C586.535 206.293 584.388 204.24 581.681 202.84C579.068 201.44 576.175 200.74 573.001 200.74C570.295 200.74 567.635 201.44 565.021 202.84C562.501 204.147 560.401 206.153 558.721 208.86C557.135 211.567 556.341 214.88 556.341 218.8C556.341 222.72 557.135 226.033 558.721 228.74C560.401 231.447 562.501 233.5 565.021 234.9C567.635 236.207 570.295 236.86 573.001 236.86C576.175 236.86 579.068 236.16 581.681 234.76C584.388 233.36 586.535 231.307 588.121 228.6C589.708 225.893 590.501 222.627 590.501 218.8Z" fill="black"/>
<path d="M620.54 218.8C620.54 212.08 622.08 206.2 625.16 201.16C628.333 196.12 632.58 192.2 637.9 189.4C643.313 186.6 649.427 185.2 656.24 185.2C663.054 185.2 669.12 186.6 674.44 189.4C679.853 192.2 684.1 196.12 687.18 201.16C690.353 206.2 691.94 212.08 691.94 218.8C691.94 225.427 690.353 231.307 687.18 236.44C684.1 241.48 679.853 245.4 674.44 248.2C669.12 251 663.054 252.4 656.24 252.4C649.427 252.4 643.313 251 637.9 248.2C632.58 245.4 628.333 241.48 625.16 236.44C622.08 231.307 620.54 225.427 620.54 218.8ZM639.02 218.8C639.02 222.44 639.767 225.66 641.26 228.46C642.847 231.167 644.947 233.313 647.56 234.9C650.173 236.393 653.067 237.14 656.24 237.14C659.414 237.14 662.307 236.393 664.92 234.9C667.533 233.313 669.587 231.167 671.08 228.46C672.667 225.66 673.46 222.44 673.46 218.8C673.46 215.16 672.667 211.94 671.08 209.14C669.587 206.34 667.533 204.193 664.92 202.7C662.307 201.207 659.414 200.46 656.24 200.46C653.067 200.46 650.173 201.207 647.56 202.7C644.947 204.193 642.847 206.34 641.26 209.14C639.767 211.94 639.02 215.16 639.02 218.8Z" fill="black"/>
<path d="M719.684 217.4H741.244C745.724 217.4 749.738 217.867 753.284 218.8C756.831 219.733 759.631 221.367 761.684 223.7C763.738 226.033 764.764 229.3 764.764 233.5C764.764 238.353 763.131 242.507 759.864 245.96C756.691 249.32 751.418 251 744.044 251H719.684V238.82H738.304C741.571 238.82 743.904 238.073 745.304 236.58C746.798 235.087 747.544 233.407 747.544 231.54C747.544 230.513 747.358 229.627 746.984 228.88C746.611 228.04 746.051 227.293 745.304 226.64C744.651 225.893 743.718 225.38 742.504 225.1C741.384 224.727 739.984 224.54 738.304 224.54H719.684V217.4ZM719.684 220.2V212.36H736.904C738.118 212.36 739.191 212.22 740.124 211.94C741.151 211.567 741.991 211.053 742.644 210.4C743.298 209.747 743.811 209 744.184 208.16C744.558 207.32 744.744 206.433 744.744 205.5C744.744 203.633 744.044 202.047 742.644 200.74C741.244 199.433 739.331 198.78 736.904 198.78H719.684V186.6H739.844C743.858 186.6 747.498 187.207 750.764 188.42C754.124 189.54 756.831 191.407 758.884 194.02C760.938 196.54 761.964 199.9 761.964 204.1C761.964 207.74 760.938 210.773 758.884 213.2C756.831 215.533 754.124 217.307 750.764 218.52C747.498 219.64 743.858 220.2 739.844 220.2H719.684ZM709.184 186.6H726.684V251H709.184V186.6Z" fill="black"/>
<path d="M21.7 342C21.7 348.44 23.1467 354.087 26.04 358.94C29.0267 363.7 32.9 367.387 37.66 370C42.42 372.52 47.6 373.78 53.2 373.78C57.8667 373.78 62.02 373.173 65.66 371.96C69.3 370.747 72.5667 369.113 75.46 367.06C78.4467 365.007 81.0133 362.767 83.16 360.34V382.88C79.1467 386.053 74.76 388.527 70 390.3C65.3333 392.073 59.4067 392.96 52.22 392.96C44.7533 392.96 37.8 391.747 31.36 389.32C25.0133 386.893 19.46 383.393 14.7 378.82C10.0333 374.247 6.39333 368.88 3.78 362.72C1.26 356.467 0 349.56 0 342C0 334.44 1.26 327.58 3.78 321.42C6.39333 315.167 10.0333 309.753 14.7 305.18C19.46 300.607 25.0133 297.107 31.36 294.68C37.8 292.253 44.7533 291.04 52.22 291.04C59.4067 291.04 65.3333 291.927 70 293.7C74.76 295.473 79.1467 297.947 83.16 301.12V323.66C81.0133 321.233 78.4467 318.993 75.46 316.94C72.5667 314.887 69.3 313.253 65.66 312.04C62.02 310.827 57.8667 310.22 53.2 310.22C47.6 310.22 42.42 311.527 37.66 314.14C32.9 316.66 29.0267 320.3 26.04 325.06C23.1467 329.82 21.7 335.467 21.7 342Z" fill="black"/>
<path d="M116.38 371.82C116.38 373.593 116.847 375.087 117.78 376.3C118.714 377.42 119.974 378.307 121.56 378.96C123.24 379.52 125.06 379.8 127.02 379.8C129.914 379.8 132.574 379.333 135 378.4C137.427 377.467 139.34 375.927 140.74 373.78C142.14 371.633 142.84 368.787 142.84 365.24L145.08 372.8C145.08 376.907 144.007 380.453 141.86 383.44C139.714 386.333 136.82 388.573 133.18 390.16C129.634 391.653 125.62 392.4 121.14 392.4C116.754 392.4 112.834 391.653 109.38 390.16C105.927 388.667 103.174 386.473 101.12 383.58C99.1605 380.593 98.1805 376.953 98.1805 372.66C98.1805 368.273 99.3005 364.54 101.54 361.46C103.874 358.287 107.094 355.86 111.2 354.18C115.4 352.5 120.3 351.66 125.9 351.66C129.354 351.66 132.574 352.08 135.56 352.92C138.547 353.76 141.067 354.74 143.12 355.86C145.174 356.98 146.62 358.053 147.46 359.08V367.9C144.847 365.94 142.14 364.493 139.34 363.56C136.54 362.627 133.227 362.16 129.4 362.16C126.6 362.16 124.22 362.58 122.26 363.42C120.3 364.26 118.807 365.38 117.78 366.78C116.847 368.18 116.38 369.86 116.38 371.82ZM110.64 344.94L104.06 332.48C107.327 330.707 111.34 329.027 116.1 327.44C120.86 325.76 126.134 324.92 131.92 324.92C137.52 324.92 142.42 325.713 146.62 327.3C150.914 328.887 154.274 331.22 156.7 334.3C159.127 337.287 160.34 340.973 160.34 345.36V391H142.84V348.3C142.84 345.407 141.72 343.167 139.48 341.58C137.24 339.9 134.347 339.06 130.8 339.06C127.72 339.06 124.827 339.433 122.12 340.18C119.507 340.833 117.174 341.627 115.12 342.56C113.16 343.493 111.667 344.287 110.64 344.94Z" fill="black"/>
<path d="M218.492 326.6H238.512L214.712 357.82L239.912 391H219.892L205.332 370.56L191.052 391H170.332L195.812 357.82L171.732 326.6H192.452L205.332 345.22L218.492 326.6Z" fill="black"/>
<path d="M263.862 371.82C263.862 373.593 264.328 375.087 265.262 376.3C266.195 377.42 267.455 378.307 269.042 378.96C270.722 379.52 272.542 379.8 274.502 379.8C277.395 379.8 280.055 379.333 282.482 378.4C284.908 377.467 286.822 375.927 288.222 373.78C289.622 371.633 290.322 368.787 290.322 365.24L292.562 372.8C292.562 376.907 291.488 380.453 289.342 383.44C287.195 386.333 284.302 388.573 280.662 390.16C277.115 391.653 273.102 392.4 268.622 392.4C264.235 392.4 260.315 391.653 256.862 390.16C253.408 388.667 250.655 386.473 248.602 383.58C246.642 380.593 245.662 376.953 245.662 372.66C245.662 368.273 246.782 364.54 249.022 361.46C251.355 358.287 254.575 355.86 258.682 354.18C262.882 352.5 267.782 351.66 273.382 351.66C276.835 351.66 280.055 352.08 283.042 352.92C286.028 353.76 288.548 354.74 290.602 355.86C292.655 356.98 294.102 358.053 294.942 359.08V367.9C292.328 365.94 289.622 364.493 286.822 363.56C284.022 362.627 280.708 362.16 276.882 362.16C274.082 362.16 271.702 362.58 269.742 363.42C267.782 364.26 266.288 365.38 265.262 366.78C264.328 368.18 263.862 369.86 263.862 371.82ZM258.122 344.94L251.542 332.48C254.808 330.707 258.822 329.027 263.582 327.44C268.342 325.76 273.615 324.92 279.402 324.92C285.002 324.92 289.902 325.713 294.102 327.3C298.395 328.887 301.755 331.22 304.182 334.3C306.608 337.287 307.822 340.973 307.822 345.36V391H290.322V348.3C290.322 345.407 289.202 343.167 286.962 341.58C284.722 339.9 281.828 339.06 278.282 339.06C275.202 339.06 272.308 339.433 269.602 340.18C266.988 340.833 264.655 341.627 262.602 342.56C260.642 343.493 259.148 344.287 258.122 344.94Z" fill="black"/>
<path d="M344.553 421.8H326.353V326.6H344.553V421.8ZM397.473 358.8C397.473 366.08 396.026 372.287 393.133 377.42C390.24 382.553 386.413 386.427 381.653 389.04C376.986 391.653 371.946 392.96 366.533 392.96C361.026 392.96 356.22 391.56 352.113 388.76C348.1 385.96 344.973 381.993 342.733 376.86C340.586 371.727 339.513 365.707 339.513 358.8C339.513 351.8 340.586 345.78 342.733 340.74C344.973 335.607 348.1 331.64 352.113 328.84C356.22 326.04 361.026 324.64 366.533 324.64C371.946 324.64 376.986 325.947 381.653 328.56C386.413 331.173 390.24 335.047 393.133 340.18C396.026 345.22 397.473 351.427 397.473 358.8ZM378.713 358.8C378.713 354.973 377.92 351.707 376.333 349C374.746 346.293 372.6 344.24 369.893 342.84C367.28 341.44 364.386 340.74 361.213 340.74C358.506 340.74 355.846 341.44 353.233 342.84C350.713 344.147 348.613 346.153 346.933 348.86C345.346 351.567 344.553 354.88 344.553 358.8C344.553 362.72 345.346 366.033 346.933 368.74C348.613 371.447 350.713 373.5 353.233 374.9C355.846 376.207 358.506 376.86 361.213 376.86C364.386 376.86 367.28 376.16 369.893 374.76C372.6 373.36 374.746 371.307 376.333 368.6C377.92 365.893 378.713 362.627 378.713 358.8Z" fill="black"/>
<path d="M408.752 358.8C408.752 352.08 410.292 346.2 413.372 341.16C416.545 336.12 420.792 332.2 426.112 329.4C431.525 326.6 437.639 325.2 444.452 325.2C451.265 325.2 457.332 326.6 462.652 329.4C468.065 332.2 472.312 336.12 475.392 341.16C478.565 346.2 480.152 352.08 480.152 358.8C480.152 365.427 478.565 371.307 475.392 376.44C472.312 381.48 468.065 385.4 462.652 388.2C457.332 391 451.265 392.4 444.452 392.4C437.639 392.4 431.525 391 426.112 388.2C420.792 385.4 416.545 381.48 413.372 376.44C410.292 371.307 408.752 365.427 408.752 358.8ZM427.232 358.8C427.232 362.44 427.979 365.66 429.472 368.46C431.059 371.167 433.159 373.313 435.772 374.9C438.385 376.393 441.279 377.14 444.452 377.14C447.625 377.14 450.519 376.393 453.132 374.9C455.745 373.313 457.799 371.167 459.292 368.46C460.879 365.66 461.672 362.44 461.672 358.8C461.672 355.16 460.879 351.94 459.292 349.14C457.799 346.34 455.745 344.193 453.132 342.7C450.519 341.207 447.625 340.46 444.452 340.46C441.279 340.46 438.385 341.207 435.772 342.7C433.159 344.193 431.059 346.34 429.472 349.14C427.979 351.94 427.232 355.16 427.232 358.8Z" fill="black"/>
<path d="M507.896 357.4H529.456C533.936 357.4 537.949 357.867 541.496 358.8C545.043 359.733 547.843 361.367 549.896 363.7C551.949 366.033 552.976 369.3 552.976 373.5C552.976 378.353 551.343 382.507 548.076 385.96C544.903 389.32 539.629 391 532.256 391H507.896V378.82H526.516C529.783 378.82 532.116 378.073 533.516 376.58C535.009 375.087 535.756 373.407 535.756 371.54C535.756 370.513 535.569 369.627 535.196 368.88C534.823 368.04 534.263 367.293 533.516 366.64C532.863 365.893 531.929 365.38 530.716 365.1C529.596 364.727 528.196 364.54 526.516 364.54H507.896V357.4ZM507.896 360.2V352.36H525.116C526.329 352.36 527.403 352.22 528.336 351.94C529.363 351.567 530.203 351.053 530.856 350.4C531.509 349.747 532.023 349 532.396 348.16C532.769 347.32 532.956 346.433 532.956 345.5C532.956 343.633 532.256 342.047 530.856 340.74C529.456 339.433 527.543 338.78 525.116 338.78H507.896V326.6H528.056C532.069 326.6 535.709 327.207 538.976 328.42C542.336 329.54 545.043 331.407 547.096 334.02C549.149 336.54 550.176 339.9 550.176 344.1C550.176 347.74 549.149 350.773 547.096 353.2C545.043 355.533 542.336 357.307 538.976 358.52C535.709 359.64 532.069 360.2 528.056 360.2H507.896ZM497.396 326.6H514.896V391H497.396V326.6Z" fill="black"/>
<path d="M581.109 371.82C581.109 373.593 581.576 375.087 582.509 376.3C583.443 377.42 584.703 378.307 586.289 378.96C587.969 379.52 589.789 379.8 591.749 379.8C594.643 379.8 597.303 379.333 599.729 378.4C602.156 377.467 604.069 375.927 605.469 373.78C606.869 371.633 607.569 368.787 607.569 365.24L609.809 372.8C609.809 376.907 608.736 380.453 606.589 383.44C604.443 386.333 601.549 388.573 597.909 390.16C594.363 391.653 590.349 392.4 585.869 392.4C581.483 392.4 577.563 391.653 574.109 390.16C570.656 388.667 567.903 386.473 565.849 383.58C563.889 380.593 562.909 376.953 562.909 372.66C562.909 368.273 564.029 364.54 566.269 361.46C568.603 358.287 571.823 355.86 575.929 354.18C580.129 352.5 585.029 351.66 590.629 351.66C594.083 351.66 597.303 352.08 600.289 352.92C603.276 353.76 605.796 354.74 607.849 355.86C609.903 356.98 611.349 358.053 612.189 359.08V367.9C609.576 365.94 606.869 364.493 604.069 363.56C601.269 362.627 597.956 362.16 594.129 362.16C591.329 362.16 588.949 362.58 586.989 363.42C585.029 364.26 583.536 365.38 582.509 366.78C581.576 368.18 581.109 369.86 581.109 371.82ZM575.369 344.94L568.789 332.48C572.056 330.707 576.069 329.027 580.829 327.44C585.589 325.76 590.863 324.92 596.649 324.92C602.249 324.92 607.149 325.713 611.349 327.3C615.643 328.887 619.003 331.22 621.429 334.3C623.856 337.287 625.069 340.973 625.069 345.36V391H607.569V348.3C607.569 345.407 606.449 343.167 604.209 341.58C601.969 339.9 599.076 339.06 595.529 339.06C592.449 339.06 589.556 339.433 586.849 340.18C584.236 340.833 581.903 341.627 579.849 342.56C577.889 343.493 576.396 344.287 575.369 344.94Z" fill="black"/>
<path d="M872.456 215.611C848.039 215.611 839.9 158.639 839.9 101.667C839.9 52.8334 880.595 4 953.845 4C1027.09 4 1067.79 52.8334 1067.79 101.667C1067.79 158.639 1059.65 215.611 1035.23 215.611" fill="#F4AA41"/>
<path d="M863.503 158.639C862.689 223.75 896.873 272.583 953.031 272.583C1010.82 272.583 1043.37 223.75 1043.37 158.639C1043.37 117.944 980.703 54.4609 980.703 54.4609C939.195 78.0637 920.475 100.039 870.828 110.619C856.178 131.78 865.131 132.594 863.503 158.639Z" fill="#FCEA2B"/>
<path d="M796.764 401.178V370.25C796.764 329.556 837.459 297 878.153 297C926.986 337.694 975.82 337.694 1024.65 297C1065.35 297 1106.04 329.556 1106.04 370.25V401.178H796.764Z" fill="#3F3F3F"/>
<path d="M1041.74 401.178C1032.79 372.692 1017.33 336.88 997.795 322.23H909.081C888.734 336.88 874.084 372.692 864.317 401.178H1041.74Z" fill="#EA5A47"/>
<path d="M994.539 401.992C998.609 394.667 1002.68 386.529 1005.93 379.204C1001.36 378.669 997.075 376.671 993.725 373.506C990.603 370.79 988.577 367.028 988.028 362.926H951.403H914.778C914.609 364.655 914.053 366.324 913.15 367.809C912.276 370.01 910.879 371.965 909.081 373.506C905.731 376.671 901.449 378.669 896.872 379.204C900.942 386.529 905.011 394.667 909.081 401.992H994.539Z" fill="#FCEA2B"/>
<path d="M864.317 143.989C875.321 144.413 886.169 141.273 895.245 135.036C906.639 125.27 920.475 117.131 940.823 131.781C944.512 134.233 948.668 135.896 953.031 136.664C957.435 136.045 961.623 134.37 965.239 131.781C985.586 117.131 999.423 125.27 1010.82 135.036C1019.94 141.169 1030.75 144.299 1041.74 143.989L1040.93 157.011C1029.93 156.587 1019.08 159.727 1010 165.964C998.609 175.731 984.773 183.87 964.425 169.22C960.736 166.767 956.58 165.105 952.217 164.336C947.813 164.955 943.625 166.631 940.009 169.22C919.661 183.87 905.825 175.731 894.431 165.964C885.306 159.831 874.493 156.701 863.503 157.011L864.317 143.989Z" fill="#EA5A47"/>
<path d="M896.059 309.209C882.434 313.89 870.215 321.941 860.538 332.614C850.861 343.287 844.042 356.234 840.714 370.251" fill="#3F3F3F"/>
<path d="M1008.38 311.65C1022 316.331 1034.22 324.383 1043.9 335.055C1053.57 345.728 1060.39 358.675 1063.72 372.692" fill="#3F3F3F"/>
<path d="M826.064 341.764C834.914 330.415 845.994 320.998 858.62 314.091C867.124 309.9 876.16 306.888 885.478 305.139" stroke="black" stroke-width="8" stroke-miterlimit="10" stroke-linecap="round"/>
<path d="M896.059 309.208C882.434 313.889 870.215 321.94 860.538 332.613C850.861 343.286 844.042 356.233 840.714 370.25" stroke="black" stroke-width="8" stroke-miterlimit="10" stroke-linecap="round"/>
<path d="M1079.18 343.392C1070.33 332.043 1059.25 322.626 1046.63 315.719C1038.12 311.528 1029.09 308.516 1019.77 306.767" stroke="black" stroke-width="8" stroke-miterlimit="10" stroke-linecap="round"/>
<path d="M1008.38 311.65C1022 316.331 1034.22 324.383 1043.9 335.055C1053.57 345.728 1060.39 358.675 1063.72 372.692" stroke="black" stroke-width="8" stroke-miterlimit="10" stroke-linecap="round"/>
<path d="M902.57 317.348C887.659 331.983 875.768 349.404 867.573 368.623C864.012 376.454 861.285 384.638 859.434 393.039" stroke="black" stroke-width="8" stroke-miterlimit="10" stroke-linecap="round"/>
<path d="M796.764 393.039V368.622C796.764 327.928 837.459 295.372 878.153 295.372C926.986 336.067 975.82 336.067 1024.65 295.372C1065.35 295.372 1106.04 327.928 1106.04 368.622V393.039" stroke="black" stroke-width="8" stroke-linecap="round" stroke-linejoin="round"/>
<path d="M1003.49 317.348C1017.27 332.724 1028.78 349.99 1037.68 368.623C1041.63 376.466 1044.89 384.635 1047.44 393.039" stroke="black" stroke-width="8" stroke-miterlimit="10" stroke-linecap="round"/>
<path d="M911.523 388.969L903.384 373.505C907.392 372.682 911.071 370.701 913.964 367.808C916.858 364.915 918.838 361.236 919.661 357.228H983.959C984.38 361.401 986.231 365.301 989.197 368.267C992.163 371.233 996.063 373.084 1000.24 373.505C1000.24 374.319 992.098 388.155 992.098 388.155" stroke="black" stroke-width="8" stroke-linecap="round" stroke-linejoin="round"/>
<path d="M864.317 143.989C875.321 144.413 886.169 141.273 895.245 135.036C906.639 125.27 920.475 117.131 940.823 131.781C944.512 134.233 948.668 135.896 953.031 136.664C957.435 136.045 961.623 134.37 965.239 131.781C985.586 117.131 999.423 125.27 1010.82 135.036C1019.94 141.169 1030.75 144.299 1041.74 143.989L1040.93 157.011C1029.93 156.587 1019.08 159.727 1010 165.964C998.609 175.731 984.773 183.87 964.425 169.22C960.736 166.767 956.58 165.105 952.217 164.336C947.813 164.955 943.625 166.631 940.009 169.22C919.661 183.87 905.825 175.731 894.431 165.964C885.306 159.831 874.493 156.701 863.503 157.011L864.317 143.989Z" stroke="black" stroke-width="8" stroke-linejoin="round"/>
<path d="M872.456 223.75C839.9 223.75 839.9 174.917 839.9 117.944C839.9 60.9722 872.456 4 953.845 4C1035.23 4 1067.79 60.9722 1067.79 117.944C1067.79 174.917 1067.79 223.75 1035.23 223.75" stroke="black" stroke-width="8" stroke-linecap="round" stroke-linejoin="round"/>
<path d="M1001.86 150.499C1001.86 153.719 1000.91 156.866 999.121 159.543C997.332 162.22 994.79 164.306 991.816 165.538C988.841 166.77 985.568 167.093 982.411 166.464C979.253 165.836 976.353 164.286 974.076 162.01C971.8 159.733 970.25 156.833 969.621 153.675C968.993 150.518 969.316 147.245 970.548 144.27C971.78 141.296 973.866 138.754 976.543 136.965C979.22 135.176 982.367 134.222 985.586 134.222C989.9 134.234 994.033 135.953 997.083 139.003C1000.13 142.053 1001.85 146.186 1001.86 150.499Z" fill="black"/>
<path d="M936.753 150.499C936.753 153.719 935.798 156.866 934.01 159.543C932.221 162.22 929.679 164.306 926.705 165.538C923.73 166.77 920.457 167.093 917.3 166.464C914.142 165.836 911.242 164.286 908.965 162.01C906.689 159.733 905.138 156.833 904.51 153.675C903.882 150.518 904.205 147.245 905.437 144.27C906.669 141.296 908.755 138.754 911.432 136.965C914.109 135.176 917.256 134.222 920.475 134.222C924.789 134.234 928.922 135.953 931.971 139.003C935.021 142.053 936.74 146.186 936.753 150.499Z" fill="black"/>
<path d="M863.503 158.639C863.503 231.889 903.384 272.583 953.031 272.583C1001.05 272.583 1043.37 231.889 1043.37 158.639C1043.57 144.65 1040.8 130.779 1035.23 117.944C1010.82 93.5274 978.261 52.833 978.261 52.833C945.706 77.2497 921.289 101.666 872.456 109.805C872.456 109.805 863.503 117.944 863.503 158.639Z" stroke="black" stroke-width="8" stroke-linejoin="round"/>
<path d="M929.428 215.611C937.002 219.425 945.365 221.411 953.845 221.411C962.325 221.411 970.687 219.425 978.261 215.611" stroke="black" stroke-width="8" stroke-linecap="round" stroke-linejoin="round"/>
</svg>
