<svg width="262" height="44" viewBox="0 0 262 44" fill="none" xmlns="http://www.w3.org/2000/svg">
<path fill-rule="evenodd" clip-rule="evenodd" d="M156.024 12.404V25.5405C156.024 26.9079 156.12 28.1532 156.313 29.2764C156.506 30.3833 156.851 31.4739 157.348 32.5483C157.846 33.6064 158.496 34.4935 159.299 35.2098C160.117 35.926 161.177 36.5039 162.477 36.9434C163.793 37.3829 165.31 37.6027 167.028 37.6027C174.187 37.6027 177.767 33.5494 177.767 25.4428V23.9046H171.025V25.8579C171.025 28.1206 170.696 29.7322 170.038 30.6926C169.396 31.6367 168.376 32.1088 166.98 32.1088C165.519 32.1088 164.476 31.6448 163.85 30.717C163.24 29.7891 162.935 28.1694 162.935 25.8579V11.5982C162.935 9.36811 163.248 7.79726 163.874 6.88568C164.516 5.95783 165.567 5.4939 167.028 5.4939C168.473 5.4939 169.5 5.94969 170.11 6.86127C170.72 7.77285 171.025 9.35183 171.025 11.5982V12.404H177.767V10.5971C177.767 7.2438 176.844 4.63929 174.998 2.78357C173.168 0.927858 170.543 0 167.124 0C163.432 0 160.655 1.01739 158.793 3.05216C156.947 5.08694 156.024 8.20422 156.024 12.404ZM182.462 0.63485V36.7481H189.228V25.9068L191.9 22.3418L197.8 36.7481H205.36L196.042 16.2864L205.047 0.63485H197.414L189.228 16.2864V0.63485H182.462ZM239.329 36.7481V0.63485H261.77V36.7481H255.028V6.15316H246.095V36.7481H239.329ZM219.352 25.9459C224.673 25.9459 228.987 21.493 228.987 16C228.987 10.507 224.673 6.05405 219.352 6.05405C214.03 6.05405 209.716 10.507 209.716 16C209.716 21.493 214.03 25.9459 219.352 25.9459ZM230.686 26.9133C233.27 24.0548 234.852 20.218 234.852 16C234.852 7.16344 227.912 0 219.352 0C210.791 0 203.852 7.16344 203.852 16C203.852 24.8366 210.791 32 219.352 32C221.733 32 223.989 31.4455 226.006 30.4548L232.327 37.5353L236.604 33.5416L230.686 26.9133Z" fill="#231F20"/>
<path d="M0 6.15315V0.634842H23.5242V6.15315H15.1451V36.748H8.37916V6.15315H0Z" fill="#00AEEF"/>
<path d="M26.847 36.748V0.634842H45.8927V6.15315H33.6129V14.5527H44.8092V20.0466H33.6129V31.2542H45.8927V36.748H26.847Z" fill="#00AEEF"/>
<path d="M50.1064 36.748V0.634842H56.8723V14.5527H65.8053V0.634842H72.5471V36.748H65.8053V20.0466H56.8723V36.748H50.1064Z" fill="#00AEEF"/>
<path d="M75.4718 31.2542H77.6148C78.8347 28.5031 79.6775 25.7928 80.143 23.1232C80.6245 20.4536 80.8653 16.7096 80.8653 11.8912V0.634842H101.067V31.2542H103.234V44H96.7327V36.748H81.997V44H75.4718V31.2542ZM84.3085 31.2542H94.3249V6.15315H87.5108V14.333C87.5108 18.256 87.254 21.4547 86.7403 23.929C86.2427 26.387 85.4321 28.8287 84.3085 31.2542Z" fill="#00AEEF"/>
<path d="M107.183 36.748V0.634842H126.228V6.15315H113.949V14.5527H125.145V20.0466H113.949V31.2542H126.228V36.748H107.183Z" fill="#00AEEF"/>
<path d="M130.442 36.748V0.634842H143.227C145.105 0.634842 146.759 1.11505 148.187 2.07546C149.632 3.0196 150.724 4.2893 151.462 5.88456C152.217 7.46355 152.594 9.22974 152.594 11.1831C152.594 13.1691 152.208 14.9841 151.438 16.6282C150.684 18.2723 149.576 19.5908 148.115 20.5838C146.671 21.5605 145.009 22.0488 143.131 22.0488H137.208V36.748H130.442ZM137.208 16.7014H140.603C142.288 16.7014 143.556 16.2375 144.407 15.3096C145.258 14.3818 145.683 13.047 145.683 11.3052C145.683 9.57972 145.258 8.26118 144.407 7.3496C143.556 6.43802 142.288 5.98223 140.603 5.98223H137.208V16.7014Z" fill="#00AEEF"/>
<path d="M218.4 11H220.4V21H218.4V11Z" fill="#231F20"/>
<path d="M224.4 15L224.4 17L214.4 17L214.4 15L224.4 15Z" fill="#231F20"/>
</svg>